<?xml version="1.0" encoding="UTF-8"?>
<svg width="44px"
	 height="44px"
	 viewBox="0 0 44 44"
	 version="1.1"
	 xmlns="http://www.w3.org/2000/svg">
	<g id="consumer_upsell__icon_4">
		<rect
			id="Bounds"
			fill-opacity="0"
			fill="#D8D8D8"
			x="0"
			y="0"
			width="44"
			height="44"/>
		<path
			d="M21.9980006,43 C10.2038127,36.0830184 2.97015514,23.4219622 3.00009257,9.748 C3.00004095,7.81035378 3.14375307,5.87537461 3.43004522,3.959 C3.94015359,4.25682641 4.5201897,4.41384336 5.11086014,4.414 C10.9116326,4.41772851 16.6541274,3.25679322 21.9980006,1 C27.3420156,3.25610729 33.0845051,4.41636141 38.8851411,4.412 C39.4771822,4.41204422 40.0584894,4.25392783 40.5689556,3.954 C40.8560826,5.87130063 41.0001313,7.80731443 40.9999082,9.746 C41.0297263,23.4214946 33.7943439,36.0836658 21.9980006,43 Z M38.8481451,6.306 C33.0701448,6.30792684 27.3470109,5.18504741 21.9980006,3 C16.6488997,5.18463134 10.9257829,6.30716778 5.14785606,6.305 C5.04786707,7.415 5.00187214,8.531 5.00187214,9.641 C4.97876505,22.3013408 11.3784113,34.1091185 21.9980006,41 C32.6183528,34.1095869 39.0187968,22.3017268 38.9961288,9.641 C38.9961288,8.531 38.9471342,7.415 38.8501449,6.305 L38.8481451,6.306 Z"
			id="Shape"
			fill="#2AA854"/>
		<path
			d="M22,37.502 L22,37.502 C12.7014216,31.3132328 7.08122836,20.9125032 7,9.743 C7,9.331 7.00766667,8.91666667 7.023,8.5 C12.1426838,8.30476139 17.1981958,7.29197102 21.998,5.5 L21.998,5.5 L21.998,37.5 L22,37.502 Z"
			id="Shape"
			fill-opacity="0.33"
			fill="#2AA854"/>
	</g>
</svg>