<?xml version="1.0" encoding="UTF-8"?>
<svg width="44px"
	 height="44px"
	 viewBox="0 0 44 44"
	 version="1.1"
	 xmlns="http://www.w3.org/2000/svg">
	<g id="consumer_upsell__icon_2">
		<rect
			id="Bounds"
			fill-opacity="0"
			fill="#D8D8D8"
			x="0"
			y="0"
			width="44"
			height="44"/>
		<path
			d="M37.9963224,20.9429636 C33.8930215,25.03744 27.599959,31.2460642 25.4502296,33.3911704 C23.3005003,35.5362765 20.816502,35.5362765 18.6667727,33.3911704 C16.5170433,31.2460642 10.2249817,25.03744 6.12067995,20.9429636 C3.4406847,18.2991193 2.38469736,14.4256771 3.35315132,10.7914572 C4.32160529,7.15723734 7.16619716,4.31876305 10.8082496,3.35239184 C14.4503021,2.38602063 18.3320925,3.43973696 20.9816349,6.11396863 L22.0635052,7.19351227 C22.0635052,7.19351227 22.7100253,6.53839605 23.1353675,6.11496728 C27.250593,2.08963464 33.8469378,2.12232274 37.9218942,6.18824172 C41.9968506,10.2541607 42.0300534,16.8363172 37.9963224,20.9429636 L37.9963224,20.9429636 Z M36.50562,7.49020027 C33.1793289,4.16993324 27.7868239,4.16993324 24.4605328,7.49020027 C22.9473812,9.00081631 23.0646254,8.89577347 22.6738115,9.28593258 C22.2824966,9.67647378 21.6481751,9.67647378 21.2568603,9.28593258 C20.8650442,8.89577347 20.9842926,9.00081631 19.4701389,7.49020027 C16.1329176,4.23528609 10.7938125,4.2663259 7.49478932,7.55982102 C4.19576618,10.8533161 4.16467428,16.1834748 7.42505172,19.5151041 C10.7509789,22.8364586 18.6163607,30.6196326 19.9862138,31.9851895 C21.3560669,33.3507464 22.5485506,33.3257362 23.9444579,31.9851895 C25.3924738,30.5946224 33.1796929,22.8364586 36.50562,19.5151041 C39.83146,16.1943867 39.83146,10.8109177 36.50562,7.49020027 Z"
			id="base"
			fill="#F261B8"/>
		<path
			d="M21.9950818,30.5 C21.5996313,30.5016917 21.2201319,30.3441977 20.9420818,30.063 C20.0420818,29.163 18.4970818,27.629 16.7060818,25.853 C14.2330818,23.4 11.2860818,20.476 8.90608182,18.097 C7.2631958,16.4555433 6.62081329,14.0623054 7.2209136,11.8187961 C7.82101392,9.57528673 9.57242752,7.82234833 11.8154138,7.22029588 C14.0584001,6.61824343 16.4521961,7.25854304 18.0950818,8.9 L21.9950818,12.8 L21.9950818,30.5 L21.9950818,30.5 Z"
			id="base-2"
			fill-opacity="0.5"
			fill="#F261B8"/>
	</g>
</svg>