<?xml version="1.0" encoding="UTF-8"?>
<svg width="44px"
	 height="44px"
	 viewBox="0 0 44 44"
	 version="1.1"
	 xmlns="http://www.w3.org/2000/svg">
	<g id="consumer_upsell__icon_6">
		<rect
			id="Bounds"
			fill-opacity="0"
			fill="#D8D8D8"
			x="0"
			y="0"
			width="44"
			height="44"/>
		<path
			d="M22.0005835,26.9982829 C22.5528682,26.9982829 23.0005835,27.4459981 23.0005835,27.9982829 C23.0005835,28.5505676 22.5528682,28.9982829 22.0005835,28.9982829 C21.4482987,28.9982829 21.0005835,28.5505676 21.0005835,27.9982829 C21.0005835,27.4459981 21.4482987,26.9982829 22.0005835,26.9982829 Z M22.0005835,14.9982839 C23.065655,14.9808098 24.0923158,15.3966569 24.8461012,16.1508556 C25.5998866,16.9050542 26.016423,17.9331957 26.0005835,19.0004772 C26.0005835,21.9605369 23.0005835,21.9014159 23.0005835,24.0107341 L22.9845835,24.0107341 L22.9845835,24.0107341 C22.9845835,24.5558505 22.5435839,24.9977547 21.9995835,24.9977547 C21.455583,24.9977547 21.0145835,24.5558505 21.0145835,24.0107341 L21.0145835,24.0107341 L21.0005835,24.0107341 C21.0005835,21.0045799 24.0005835,21.0045799 24.0005835,19.0004772 C23.9834337,17.9008387 23.0979708,17.0135594 22.0005835,16.9963744 C20.931938,17.068816 20.0793066,17.9180703 20.0005835,18.9884525 C20.0005835,18.9994751 20.0065835,19.0084936 20.0065835,19.0195161 C20.0065835,19.5751475 19.5570774,20.0255757 19.0025835,20.0255757 C18.4480896,20.0255757 17.9985835,19.5751475 17.9985835,19.0195161 C17.9981009,19.0138481 17.9981009,19.0081493 17.9985835,19.0024813 L17.9985835,19.0024813 C18.108438,16.8359577 19.8383328,15.1051131 22.0005835,14.9982839 Z M39.5303312,29.3282829 C39.2336257,28.4895537 38.7986432,27.7064018 38.2434106,27.0112829 C40.5456612,19.538441 37.4536905,11.4588235 30.750865,7.43253901 C24.0480394,3.40625451 15.4633412,4.47187606 9.94819603,10.0147815 C4.43305087,15.5576869 3.41008086,24.1480934 7.46930791,30.8312829 L8.34925366,32.2762829 L8.34025422,32.2762829 C8.88690587,33.7660307 9.1355994,35.3486617 9.07220909,36.9342829 C9.07220909,37.1672829 9.06420958,37.4022829 9.04921051,37.6342829 C10.3590081,37.5851732 11.6588076,37.3855273 12.9229717,37.0392829 L13.6659259,36.8392829 L14.3528835,37.1872829 C18.2749822,39.1641101 22.8102098,39.5450855 27.0071033,38.2502829 C27.7021794,38.8055498 28.4852831,39.2405591 29.3239605,39.5372829 C24.2044259,41.6752552 18.4062025,41.4684892 13.4519391,38.9712829 C11.8154087,39.4199229 10.1261531,39.6472785 8.42924873,39.6472829 C7.84428479,39.6472829 7.2683203,39.6122829 6.69635557,39.5602829 C6.94406858,38.7065432 7.0706308,37.8222361 7.07233239,36.9332829 C7.10931311,35.1622381 6.65745988,33.4152644 5.7664129,31.8842829 C5.80141074,31.8542829 5.72741531,31.9022829 5.7664129,31.8722829 C1.10605644,24.2081853 2.44023085,14.3286402 8.96653452,8.1754215 C15.4928382,2.02220283 25.4331754,1.27175914 32.8092103,6.37542365 C40.1852453,11.4790882 42.9873724,21.0463641 39.5303312,29.3232829 L39.5303312,29.3282829 Z"
			id="Shape"
			fill-opacity="0.66"
			fill="#9266CC"/>
		<g
			id="Group"
			transform="translate(24.000000, 23.000000)"
			fill="#9266CC">
			<path
				d="M16.2500833,17.3150098 C13.1437113,16.7300127 13.0654936,17.9913821 8.99948122,18 C4.90752921,17.9996116 1.33094091,15.2386165 0.294369291,11.2799726 C-0.742202329,7.3213287 1.02221344,3.16167729 4.58880732,1.15573464 C8.15540119,-0.850208009 12.6262356,-0.19741911 15.4704384,2.74456733 C18.3146411,5.68655378 18.8161462,10.1770535 16.6910591,13.674062 C16.0645361,14.7841921 15.9057464,16.0930896 16.2500833,17.3150098 Z M8.99969394,2.00022914 C5.13379536,2.00022914 1.99986535,5.13418551 1.99986535,9.0001166 C1.99986535,12.8660477 5.13379536,16.0000041 8.99969394,16.0000041 C10.0934775,16.0029207 11.1723471,15.7462893 12.1476699,15.2511928 L12.7896453,14.9277064 L13.4815411,15.1174052 C13.6971969,15.1766445 13.9145168,15.2249012 14.1335006,15.2621754 C14.163465,14.838537 14.2248697,14.4177111 14.3172074,14.0031741 L14.3172074,14.0091646 L15.0450458,12.8110666 L15.4444085,11.7357737 C16.3602725,9.57348328 16.1315874,7.09610234 14.835374,5.13801056 C13.5391607,3.17991877 11.3479328,2.00171947 8.99969394,2.00022914 Z"
				id="Combined-Shape"/>
			<g
				id="ellipsis"
				transform="translate(5.000000, 7.000000)">
				<path
					d="M6.99931659,2.00012889 C6.44706215,2.00012889 5.99937147,1.55242006 5.99937147,1.00014322 C5.99937147,0.447866375 6.44706215,0.000157536601 6.99931659,0.000157536601 C7.55157103,0.000157536601 7.99926172,0.447866375 7.99926172,1.00014322 C7.99926172,1.55242006 7.55157103,2.00012889 6.99931659,2.00012889 Z"
					id="Path"/>
				<path
					d="M3.99948122,3.00011457 C3.44722678,3.00011457 2.9995361,2.55240573 2.9995361,2.00012889 C2.9995361,1.44785205 3.44722678,1.00014322 3.99948122,1.00014322 C4.55173566,1.00014322 4.99942634,1.44785205 4.99942634,2.00012889 C4.99942634,2.55240573 4.55173566,3.00011457 3.99948122,3.00011457 Z"
					id="Path"/>
				<path
					d="M0.999645848,3.00011457 C0.447391406,3.00011457 -0.000299275522,2.55240573 -0.000299275522,2.00012889 C-0.000299275522,1.44785205 0.447391406,1.00014322 0.999645848,1.00014322 C1.55190029,1.00014322 1.99959097,1.44785205 1.99959097,2.00012889 C1.99959097,2.55240573 1.55190029,3.00011457 0.999645848,3.00011457 Z"
					id="Path"/>
			</g>
		</g>
	</g>
</svg>