<?xml version="1.0" encoding="UTF-8"?>
<svg width="44px"
	 height="44px"
	 viewBox="0 0 44 44"
	 version="1.1"
	 xmlns="http://www.w3.org/2000/svg">
	<g id="consumer_upsell__icon_1">
		<rect
			id="Bounds"
			fill-opacity="0"
			fill="#D8D8D8"
			x="0"
			y="0"
			width="44"
			height="44"/>
		<path
			d="M22.0056843,41 C6,41 6,38.376 6,37.064 L6,22.628 C6,20.848 6.00699986,20.276 10.9999014,20.092 L10.9999014,14 L10.9999014,14 C10.9999014,7.92486775 15.924672,3 21.9996845,3 C28.0746969,3 32.9994675,7.92486775 32.9994675,14 L32.9994675,14 L32.9994675,20.093 C37.9993689,20.277 37.9993689,20.849 37.9993689,22.629 L37.9993689,37.065 C38.0113687,38.376 38.0113687,41 22.0056843,41 Z M31,13.9754671 L31,13.9754671 C31,9.01845348 26.9705627,5 22,5 C17.0294373,5 13,9.01845348 13,13.9754671 L13,13.9754671 L13,20 C15.222,19.9631009 18.143,19.9631009 22,19.9631009 C25.857,19.9631009 28.778,19.9631009 31,20 L31,13.9754671 Z M36,22.352 C34.515,22 29.638,22 22,22 C14.362,22 9.485,22 8,22.352 C8,22.444 8,37.063 8,37.063 C8,37.123 8,37.198 8,37.25 C8.252,37.501 10.248,39 22,39 C33.752,39 35.746,37.5 36,37.25 C36,37.198 36,37.123 36,37.063 C36,37.063 36,22.444 36,22.352 Z"
			id="_1"
			fill="#E6A817"/>
		<path
			d="M22.9999096,30.7272316 L22.9999096,33.0012913 C22.9999096,33.5528629 22.5522348,34 22,34 C21.4477652,34 21.0000904,33.5528629 21.0000904,33.0012913 L21.0000904,30.7272316 C20.2162252,30.2752104 19.8340582,29.3536857 20.068323,28.4804477 C20.3025877,27.6072098 21.0948705,27 22,27 C22.9051295,27 23.6974123,27.6072098 23.931677,28.4804477 C24.1659418,29.3536857 23.7837748,30.2752104 22.9999096,30.7272316 Z"
			id="_1-2"
			fill-opacity="0.5"
			fill="#E5A817"/>
	</g>
</svg>