<?xml version="1.0" encoding="UTF-8"?>
<svg width="44px"
	 height="44px"
	 viewBox="0 0 44 44"
	 version="1.1"
	 xmlns="http://www.w3.org/2000/svg">
	<g id="consumer_upsell__icon_3">
		<rect
			id="Bounds"
			fill-opacity="0"
			fill="#D8D8D8"
			x="0"
			y="0"
			width="44"
			height="44"/>
		<path
			d="M39.9494332,41.4850661 L9.05856857,41.4850661 C8.42945351,41.5570591 7.79846641,41.3666834 7.31428222,40.9587958 C6.83009803,40.5509082 6.5355354,39.9615801 6.5,39.3296706 C6.5,34.7489553 9.92776172,33.5862814 12.9524339,32.5595694 C16.0081129,31.5238599 18.6617026,30.6231125 18.8457435,26.6752197 C17.2983152,25.4455249 16.3246934,23.6340958 16.1531451,21.6656247 C16.1021338,21.6036421 15.99511,21.4996713 15.9120916,21.4196937 C15.2799511,20.8068656 14.2227162,19.7801535 14.2227162,16.9809386 C14.117859,16.0333773 14.4786922,15.0937449 15.1909313,14.4596458 C15.0487927,13.6383401 14.9818343,12.8057965 14.9908869,11.9723434 C14.9908869,5.92204024 17.7915092,4.70438175 19.1488108,4.47444624 C20.3910869,2.65895542 25.1951545,2.5 26.8165148,2.5 C27.6166926,2.5 29.6021338,2.5 30.0542343,4.51543474 C31.470549,4.83534502 34.0091131,6.21495809 34.0091131,11.9763422 C34.0182157,12.8097971 33.9512569,13.6423453 33.8090687,14.4636446 C34.5213078,15.0977438 34.882141,16.0373761 34.7772838,16.9849375 C34.7772838,19.7841524 33.7190487,20.8108645 33.0879084,21.4236926 C33.00489,21.5036702 32.896866,21.607641 32.8458546,21.6696236 C32.6748226,23.6382943 31.7015505,25.450107 30.1542565,26.6802183 C30.3382974,30.6271114 32.9908869,31.5278587 36.0475661,32.5635683 C39.0722383,33.5902803 42.5,34.7529542 42.5,39.3336695 C42.4632516,39.9633089 42.1693498,40.5502188 41.6871021,40.9569935 C41.2048544,41.3637682 40.5766033,41.5546919 39.9494332,41.4850661 L39.9494332,41.4850661 Z M35.4060856,34.4624586 C32.1614075,33.3625519 28.1243426,31.9956678 28.1243426,26.239156 C28.1293651,25.9155288 28.2857841,25.6128843 28.5470824,25.4212254 C29.234285,24.8582731 30.8310794,23.3594002 30.8310794,21.6145482 C30.8664292,20.9806746 31.175635,20.393313 31.6785625,20.0046847 C32.187453,19.5107266 32.7644628,18.951774 32.7644628,16.9899404 C32.7960397,16.6710261 32.7366567,16.349698 32.593163,16.063019 C32.2894766,16.0499851 32.0071093,15.9035699 31.8218132,15.6630529 C31.6020051,15.3818025 31.5489454,15.0049696 31.6825695,14.6741368 C31.9336195,13.7973051 32.0378688,12.8851074 31.9911094,11.9743658 C31.9911094,6.68581428 29.725144,6.41783701 29.2553218,6.4168371 C29.2170495,6.42080391 29.1785983,6.42280637 29.1401202,6.42283659 C28.8912943,6.42301033 28.6509215,6.33272488 28.4639369,6.16885813 C28.2484462,5.98059675 28.1246937,5.7087679 28.1243426,5.42292139 C28.1243426,4.67398491 28.1243426,4.496 26.8220636,4.496 C21.980591,4.496 20.9798397,5.46691766 20.8576258,5.61490511 C20.754648,6.08998317 20.331802,6.42772284 19.8448535,6.4238365 C19.8067079,6.42383282 19.7685889,6.42183023 19.7306536,6.41783701 C19.2768595,6.41783701 17.0108941,6.68581428 17.0108941,11.9743658 C16.9669389,12.8785737 17.0684,13.7839716 17.31142,14.6561383 C17.4586886,14.9855912 17.4141314,15.369 17.1952166,15.6560535 C17.0068302,15.901866 16.7168145,16.0489987 16.406837,16.0560196 C16.2654178,16.3433562 16.2068038,16.6642764 16.2375407,16.982941 C16.2375407,18.9447746 16.8135487,19.5037272 17.323441,19.9976853 C17.8257845,20.3866808 18.1345564,20.9739123 18.1699224,21.6075488 C18.1699224,23.3524008 19.7727273,24.8512737 20.4539194,25.4142259 C20.7155833,25.6055731 20.8721031,25.9084127 20.8766592,26.2321566 C20.8766592,31.9886684 16.8395943,33.3565524 13.5959179,34.4554592 C10.3522414,35.554366 8.50400701,36.3273004 8.5,39.3410448 C8.65369809,39.4552128 8.84410126,39.5089546 9.03493614,39.492032 L39.9690709,39.492032 C40.1597364,39.5120207 40.3505861,39.4559492 40.5,39.3360452 C40.4979965,36.3342998 38.6577761,35.5643651 35.4060856,34.4624586 Z"
			id="Dashboard"
			fill="#00BBCC"/>
		<path
			d="M19.9239247,4.47182156 C19.078243,4.62362355 18.3025756,5.04097533 17.7089449,5.66360273 C14.7170767,6.22349993 11.9954738,8.25312726 11.9954738,11.9984396 C11.9517082,12.9015701 12.0527201,13.8058923 12.2946607,14.6769478 C12.4414949,15.006334 12.3971226,15.3898232 12.1789751,15.6767642 C11.9918359,15.9225121 11.703422,16.0696595 11.3951056,16.0766908 C11.2532442,16.3633004 11.1945019,16.684084 11.2255664,17.0025208 C11.2255664,18.9621609 11.8000051,19.5200585 12.3066281,20.012968 C12.8070047,20.4018184 13.1147528,20.9889696 13.150335,21.6226724 C13.150335,23.3643526 14.7400143,24.8620776 15.4231576,25.4219748 C15.6842426,25.6124619 15.8405536,25.9151327 15.845011,26.2388249 C15.845011,31.9907687 11.8249373,33.3575178 8.59471692,34.4553162 C5.3644965,35.5531146 3.5264921,36.3259727 3.52250294,39.3354202 C3.67618531,39.4481326 3.8653095,39.501392 4.05505549,39.4853926 L7.50069043,39.4853926 C7.65670911,40.7201564 8.76432648,41.6063686 9.99989771,41.4850255 L4.05106633,41.4850255 C3.42477523,41.5570085 2.79653853,41.3674099 2.31396212,40.9607765 C1.83138572,40.5541431 1.53701024,39.9663208 1.5,39.3354202 C1.5,34.7582606 4.91870813,33.5964739 7.93451133,32.5706622 C10.9812305,31.5348524 13.626042,30.6350177 13.8095433,26.6907419 C12.2674867,25.4625276 11.2970385,23.6526525 11.1258375,21.6856609 C11.0749757,21.6236723 10.9672684,21.5186915 10.8854907,21.439706 C10.2552038,20.8268186 9.2000716,19.8010069 9.2000716,17.0035206 C9.09551604,16.0561594 9.45531981,15.1167341 10.1654478,14.4829834 C10.0237422,13.6626054 9.95697963,12.8309783 9.96598987,11.9984396 C9.96598987,6.41746432 14.7360252,3.5 19.4472204,3.5 C19.9667372,3.50225697 20.4855096,3.53966849 21,3.61197944 C20.5777161,3.80792879 20.208643,4.10283809 19.9239247,4.47182156 Z"
			id="Dashboard-2"
			fill-opacity="0.5"
			fill="#00BBCC"/>
	</g>
</svg>