<?xml version="1.0" encoding="UTF-8"?>
<svg width="44px"
	 height="44px"
	 viewBox="0 0 44 44"
	 version="1.1"
	 xmlns="http://www.w3.org/2000/svg">
	<g id="consumer_upsell__icon_5">
		<rect
			id="Bounds"
			fill-opacity="0"
			fill="#D8D8D8"
			x="0"
			y="0"
			width="44"
			height="44"/>
		<path
			d="M40.9954893,40.999942 L22.0715575,40.999942 L22.0456261,40.999942 C12.3967242,41.0236005 4.26262695,33.8102268 3.13214901,24.2273397 C2.00167106,14.6444526 8.23392092,5.73615907 17.6234331,3.51369446 C27.0129454,1.29122985 36.5770406,6.46058388 39.8619545,15.5335235 C43.1468684,24.6064632 39.1091128,34.7008718 30.4733284,39.0051344 L40.9954893,39.0051344 L40.9954893,40.999942 Z M38.9937853,22.04927 C38.9937853,12.6848047 31.4027102,5.09340567 22.0386446,5.09340567 C12.6745789,5.09340567 5.08350388,12.6848047 5.08350388,22.04927 C5.08350388,31.4137353 12.6745789,39.0051344 22.0386446,39.0051344 C31.4027102,39.0051344 38.9937853,31.4137353 38.9937853,22.04927 Z M11.0746527,22.04927 C11.0746527,15.9899101 15.9865248,11.0778284 22.0456261,11.0778284 C28.1047274,11.0778284 33.0165995,15.9899101 33.0165995,22.04927 C33.0165995,28.1086299 28.1047274,33.0207117 22.0456261,33.0207117 C15.9865248,33.0207117 11.0746527,28.1086299 11.0746527,22.04927 L11.0746527,22.04927 Z M18.7493473,30.1621524 L19.4834052,27.4212868 L21.6027977,27.989807 L20.8667452,30.7376544 C23.1942598,31.0779128 25.5591854,30.4448101 27.4054453,28.9872108 L25.3927704,26.9734525 L26.9446644,25.4224896 L28.9603314,27.4382427 C30.4274542,25.5858082 31.0676876,23.2112523 30.7306476,20.8723336 L27.9819201,21.609415 L27.4134242,19.4899319 L30.1721253,18.7508557 C29.2778276,16.570227 27.5454945,14.8399761 25.3638469,13.9483565 L24.6307864,16.6842351 L22.5113938,16.1167123 L23.2494411,13.3638779 C20.9015945,13.0156318 18.5143511,13.6550735 16.6548887,15.13028 L18.6705558,17.146033 L17.1186617,18.6979933 L15.1059868,16.6852325 C13.6440341,18.5416779 13.0119264,20.9186774 13.3586099,23.2561286 L16.1113269,22.5190472 L16.6788254,24.6385303 L13.9231164,25.3766091 C14.8252926,27.5539643 16.5636727,29.2780453 18.7483499,30.1621524 L18.7493473,30.1621524 Z"
			id="Shape"
			fill="#D94A56"/>
		<path
			d="M22,37 C13.7157288,37 7,30.2842712 7,22 C7,13.7157288 13.7157288,7 22,7 C30.2842712,7 37,13.7157288 37,22 C37,30.2842712 30.2842712,37 22,37 L22,37 Z M22,9 C14.8202983,9 9,14.8202983 9,22 C9,29.1797017 14.8202983,35 22,35 C29.1797017,35 35,29.1797017 35,22 C35,14.8202983 29.1797017,9 22,9 L22,9 Z"
			id="Shape"
			fill-opacity="0.5"
			fill="#D94A56"/>
	</g>
</svg>