<svg xmlns="http://www.w3.org/2000/svg" width="16" height="16" fill="none"><path fill="#000" fill-rule="evenodd" d="M0 8a8 8 0 1 1 16 0v3c0 .26-.05.51-.14.738-.183.46-.25 1.003-.076 1.466.14.372.216.775.216 1.196a1.6 1.6 0 0 1-1.6 1.6H1.6A1.6 1.6 0 0 1 0 14.4c0-.421.077-.824.216-1.196.174-.463.107-1.007-.076-1.466A1.995 1.995 0 0 1 0 11V8Zm6 3a1 1 0 0 0 1-1v-.05a.99.99 0 0 0-1.5-.85.99.99 0 0 1-1.5-.85V5.767a1 1 0 0 1 1.514-.857L7.485 6.09a1 1 0 0 0 1.03 0l1.97-1.182A1 1 0 0 1 12 5.766v2.485a.99.99 0 0 1-1.5.849.99.99 0 0 0-1.5.85V10a1 1 0 0 0 1 1h3a1 1 0 0 0 1-1V8A6 6 0 0 0 2 8v2a1 1 0 0 0 1 1h3Zm-2.6 2a1.4 1.4 0 0 0-.445.072c-.634.213-.225.928.444.928H12.6c.669 0 1.078-.715.444-.928A1.4 1.4 0 0 0 12.6 13H3.4Z" clip-rule="evenodd"/></svg>