<svg xmlns="http://www.w3.org/2000/svg"
	 width="104"
	 height="104"
	 viewBox="0 0 104 104">
	<g
		fill="none"
		fill-rule="evenodd">
		<path
			fill="#000"
			fill-opacity=".2"
			d="M10.8375704,36.4449704 L3.21957037,33.9701556 C10.3849778,14.6107481 28.760237,0.647785185 50.4297926,-0.000288888889 L50.4297926,8.00000741 C32.3087556,8.64037778 16.9504593,20.2893407 10.8375704,36.4449704 Z M24.8484889,86.5453333 L20.1453778,93.0183704 C7.90034074,83.4956296 0.000192592593,68.6371111 0.000192592593,51.9605185 C0.000192592593,46.9897037 0.714711111,42.1864444 2.02241481,37.6316296 L9.6356,40.1045185 C8.57826667,43.8793333 8.00048889,47.8525185 8.00048889,51.9605185 C8.00048889,65.9822222 14.5996741,78.4824444 24.8484889,86.5453333 Z M76.5108741,88.4826222 L81.2130222,94.9546963 C72.8795407,100.634252 62.8223556,103.960326 52.0005778,103.960326 C41.3839111,103.960326 31.505837,100.756548 23.2676889,95.2744 L27.9756148,88.7946222 C34.887763,93.3186222 43.1393926,95.9609926 52.0005778,95.9609926 C61.0668741,95.9609926 69.5014667,93.2021037 76.5108741,88.4826222 Z"/>
		<path
			fill="#CF2B2B"
			d="M60.6389333,0.67522963 C79.6247111,3.85204444 94.6710074,16.9464148 100.892711,34.1641926 L93.2804889,36.6380444 C87.9687852,22.2215259 75.3260444,11.272637 59.398637,8.57922963 C57.3879704,8.3278963 55.6796741,8.1536 54.2814519,8.05537778 L54.2814519,0.0396740741 C55.966637,0.140785185 58.0110074,0.342044444 60.4761926,0.652118519 L60.6389333,0.67522963 Z M94.4526074,40.3071259 L102.067719,37.8332741 C103.326311,42.3351259 104.000385,47.0738667 104.000385,51.9609037 C104.000385,68.4314222 96.2937926,83.1272 84.3077926,92.6614963 L79.6046815,86.1884593 C89.5954222,78.1169037 95.9991259,65.7746074 95.9991259,51.9609037 C95.9991259,47.9357185 95.4627556,44.0260889 94.4526074,40.3071259 Z"
			id="red"/>
	</g>
</svg>
