<svg xmlns="http://www.w3.org/2000/svg"
    width="32px"
    height="32px"
    viewBox="0 0 32 32">
    <g>
        <path d="M11,9 C12.657,9 14,10.343 14,12 C14,13.657 12.657,15 11,15 C9.343,15 8,13.657 8,12 C8,10.343 9.343,9 11,9 Z M11,17 C13,17 17,18 17,20 L17,22 L5,22 L5,20 C5,18 9,17 11,17 Z M27,11 L29,11 L29,14.000375 L32,14.000375 L32,15.999625 L29,15.999625 L29,19 L27,19 L27,15.999625 L24,15.999625 L24,14.000375 L27,14.000375 L27,11 Z M17.5,10.25 C18.742,10.25 19.75,11.257 19.75,12.5 C19.75,13.743 18.742,14.75 17.5,14.75 C16.258,14.75 15.25,13.743 15.25,12.5 C15.25,11.257 16.258,10.25 17.5,10.25 Z M3,19.333 L3,20 L0,20 L0,18.5 C0,17 3,16.25 4.5,16.25 C4.881,16.25 5.358,16.299 5.858,16.395 C4.26,17.062 3,18.039 3,19.333 Z M4.5,10.25 C5.743,10.25 6.75,11.257 6.75,12.5 C6.75,13.743 5.743,14.75 4.5,14.75 C3.257,14.75 2.25,13.743 2.25,12.5 C2.25,11.257 3.257,10.25 4.5,10.25 Z M17.5,16.25 C19,16.25 22,17 22,18.5 L22,20 L19,20 L19,19.333 C19,18.039 17.74,17.062 16.142,16.396 C16.642,16.299 17.119,16.25 17.5,16.25 Z"></path>
    </g>
</svg>