<svg xmlns="http://www.w3.org/2000/svg"
	 width="24"
	 height="24"
	 viewBox="0 0 24 24">
	<path
		fill-rule="evenodd"
		d="M11,3 C12.657,3 14,4.343 14,6 C14,7.657 12.657,9 11,9 C9.343,9 8,7.657 8,6 C8,4.343 9.343,3 11,3 Z M11,11 C13,11 17,12 17,14 L17,16 L5,16 L5,14 C5,12 9,11 11,11 Z M19,16 L21,16 L21,19.000375 L24,19.000375 L24,20.999625 L21,20.999625 L21,24 L19,24 L19,20.999625 L16,20.999625 L16,19.000375 L19,19.000375 L19,16 Z M17.5,4.25 C18.742,4.25 19.75,5.257 19.75,6.5 C19.75,7.743 18.742,8.75 17.5,8.75 C16.258,8.75 15.25,7.743 15.25,6.5 C15.25,5.257 16.258,4.25 17.5,4.25 Z M3,13.333 L3,14 L0,14 L0,12.5 C0,11 3,10.25 4.5,10.25 C4.881,10.25 5.358,10.299 5.858,10.395 C4.26,11.062 3,12.039 3,13.333 Z M4.5,4.25 C5.743,4.25 6.75,5.257 6.75,6.5 C6.75,7.743 5.743,8.75 4.5,8.75 C3.257,8.75 2.25,7.743 2.25,6.5 C2.25,5.257 3.257,4.25 4.5,4.25 Z M17.5,10.25 C19,10.25 22,11 22,12.5 L22,14 L19,14 L19,13.333 C19,12.039 17.74,11.062 16.142,10.396 C16.642,10.299 17.119,10.25 17.5,10.25 Z"/>
</svg>
