<svg xmlns="http://www.w3.org/2000/svg"
	 width="24"
	 height="24"
	 viewBox="0 0 24 24">
	<path d="M12.88,16.29 L11,18.17 L11,14.41 L12.88,16.29 Z M11,5.83 L12.88,7.71 L11,9.58 L11,5.83 Z M15.71,7.71 L10,2 L9,2 L9,9.58 L4.41,5 L3,6.41 L8.59,12 L3,17.58 L4.41,19 L9,14.41 L9,22 L10,22 L15.71,16.29 L11.41,12 L15.71,7.71 Z M19.53,6.71 L18.26,8 C18.89,9.18 19.25,10.55 19.25,12 C19.25,13.45 18.89,14.82 18.26,16 L19.46,17.22 C20.43,15.68 21,13.87 21,11.91 C21,10 20.46,8.23 19.53,6.71 Z M14.24,12 L16.56,14.33 C16.84,13.6 17,12.82 17,12 C17,11.18 16.84,10.4 16.57,9.68 L14.24,12 Z"/>
</svg>
