<svg xmlns="http://www.w3.org/2000/svg"
	 width="24"
	 height="24"
	 viewBox="0 0 24 24">
	<path d="M12,2 C11.1715729,2 10.5,2.68879269 10.5,3.53846154 L10.5,4.23557692 C7.63,4.93301282 6,7.55897436 6,10.7179487 L6,15.8461538 L4,17.8974359 L4,18.9230769 L20,18.9230769 L20,17.8974359 L18,15.8461538 L18,10.7179487 C18,7.56923077 16.36,4.93301282 13.5,4.23557692 L13.5,3.53846154 C13.5,2.68879269 12.8284271,2 12,2 Z M11,8 L13,8 L12.7782974,12 L11.2217038,12 L11,8 Z M12,16.0512821 C11.4477153,16.0512821 11,15.5920869 11,15.025641 C11,14.4591951 11.4477153,14 12,14 C12.5522847,14 13,14.4591951 13,15.025641 C13,15.5920869 12.5522847,16.0512821 12,16.0512821 Z M10,19.9487179 C10,21.0816097 10.8954305,22 12,22 C13.1045695,22 14,21.0816097 14,19.9487179 L10,19.9487179 Z"/>
</svg>
