<svg xmlns="http://www.w3.org/2000/svg"
	 width="24"
	 height="24"
	 viewBox="0 0 24 24">
	<path d="M12,2 C14.6521649,1.99999984 17.1957042,3.05356819 19.071068,4.92893201 C20.9464318,6.80429583 22.0000002,9.34783505 22,12 C22.0000002,14.6521649 20.9464318,17.1957042 19.071068,19.071068 C17.1957042,20.9464318 14.6521649,22.0000002 12,22 C9.34783505,22.0000002 6.80429583,20.9464318 4.92893201,19.071068 C3.05356819,17.1957042 1.99999984,14.6521649 2,12 C1.99999984,9.34783505 3.05356819,6.80429583 4.92893201,4.92893201 C6.80429583,3.05356819 9.34783505,1.99999984 12,2 Z M5.47777778,12 C5.47777778,10.632 6.55888889,9.52 7.88888889,9.52 L11,9.52 L11,8 L7.88888889,8 C5.74222222,8 4,9.792 4,12 C4,14.208 5.74222222,16 7.88888889,16 L11,16 L11,14.48 L7.88888889,14.48 C6.55888889,14.48 5.47777778,13.368 5.47777778,12 Z M9,13 L15,13 L15,11 L9,11 L9,13 Z M16.1111111,8 L13,8 L13,9.52 L16.1111111,9.52 C17.4411111,9.52 18.5222222,10.632 18.5222222,12 C18.5222222,13.368 17.4411111,14.48 16.1111111,14.48 L13,14.48 L13,16 L16.1111111,16 C18.2577778,16 20,14.208 20,12 C20,9.792 18.2577778,8 16.1111111,8 Z"/>
</svg>
