<?xml version="1.0" encoding="UTF-8"?>
<svg width="24px" height="24px" viewBox="0 0 24 24" version="1.1" xmlns="http://www.w3.org/2000/svg" xmlns:xlink="http://www.w3.org/1999/xlink">
    <defs>
        <path
            id="ic_centralized_management-a"
            d="M24,18 L24,19 C24,19.5522847 23.5522847,20 23,20 L1,20 C0.44771525,20 6.76353751e-17,19.5522847 0,19 L0,18 L24,18 Z M19,5 C20.6568542,5 22,6.34314575 22,8 L22,16 L20,16 L20,8 C20,7.48716416 19.6139598,7.06449284 19.1166211,7.00672773 L19,7 L5,7 C4.44771525,7 4,7.44771525 4,8 L4,8 L4,16 L2,16 L2,8 C2,6.34314575 3.34314575,5 5,5 L19,5 Z"/>
    </defs>
    <g
        fill="none"
        fill-rule="evenodd">
        <use
            fill="#000"
            fill-rule="nonzero"
            xlink:href="#ic_centralized_management-a"/>
    </g>
</svg>
