<svg xmlns="http://www.w3.org/2000/svg"
	 width="24"
	 height="24"
	 viewBox="0 0 24 24">
	<path d="M13,3 L11,3 L11,13 L13,13 L13,3 Z M17.83,5.17 L16.41,6.59 C18.0478084,7.90825931 19.0001757,9.89756714 19,12 C19,15.8659932 15.8659932,19 12,19 C9.03940057,19.001773 6.39831647,17.1395151 5.40568941,14.350278 C4.41306236,11.5610409 5.28389443,8.44897065 7.58,6.58 L6.17,5.17 C4.35021886,6.71595887 3.21928894,8.92164924 3.02611533,11.3016232 C2.83294171,13.6815972 3.59335619,16.040801 5.14,17.86 C8.36,21.64 14.04,22.1 17.83,18.88 C19.8470092,17.1644305 21.0065076,14.6479166 21,12 C21,9.37 19.84,6.87 17.83,5.17 Z"/>
</svg>
