<?xml version="1.0" encoding="UTF-8"?>
<svg width="24px" height="24px" viewBox="0 0 24 24" version="1.1" xmlns="http://www.w3.org/2000/svg" xmlns:xlink="http://www.w3.org/1999/xlink">
    <path d="M5.636497,9.86224136 C5.17139048,10.3273479 5.17685916,10.945667 5.66932027,11.4381281 L8.62957802,14.3983859 L6.07423996,16.9537239 C5.23704823,17.7909157 4.89231985,18.8360382 5.02911522,18.9728335 C5.16044192,19.1041602 6.20556441,18.7594318 7.04275614,17.9222401 L9.5980942,15.3669021 L12.558352,18.3271598 C13.0508131,18.8196209 13.6691322,18.8250896 14.1342387,18.3599831 C15.288802,17.2054198 15.5842787,15.0604768 14.6048251,12.9647632 L16.9358264,10.2726275 C18.1888707,10.6173559 19.35984,10.7596087 20.0109936,10.6775337 C20.3392935,10.6337619 20.5964782,10.5188524 20.7606282,10.3547025 C21.094408,10.0209227 21.0834707,9.51751298 20.7004391,9.13448145 L14.8674673,3.30150961 C14.4789671,2.9130094 13.9810261,2.90754072 13.6472463,3.24132054 C13.4830963,3.40547051 13.3627182,3.65718655 13.3189463,3.98548649 C13.2368714,4.63664009 13.3791242,5.8076094 13.7238638,7.0606649 L11.0317169,9.39165496 C8.93600324,8.41220142 6.79106027,8.70767808 5.636497,9.86224136 Z" id="ip" fill="#3674D3" fill-rule="nonzero"></path>
</svg>
