<?xml version="1.0" encoding="UTF-8"?>
<svg width="24px" height="24px" viewBox="0 0 24 24" version="1.1" xmlns="http://www.w3.org/2000/svg" xmlns:xlink="http://www.w3.org/1999/xlink">
    <path d="M6.17066017,5.10570888 L18.8985822,17.8336309 L17.8379221,18.8942911 L15.1468107,16.2042094 C15.0241964,17.0678762 14.6726177,17.8216041 14.1342387,18.3599831 C13.6691322,18.8250896 13.0508131,18.8196209 12.558352,18.3271598 L12.558352,18.3271598 L9.5980942,15.3669021 L7.04275614,17.9222401 C6.20556441,18.7594318 5.16044192,19.1041602 5.02911522,18.9728335 C4.89231985,18.8360382 5.23704823,17.7909157 6.07423996,16.9537239 L6.07423996,16.9537239 L8.62957802,14.3983859 L5.66932027,11.4381281 C5.17685916,10.945667 5.17139048,10.3273479 5.636497,9.86224136 C6.17529319,9.32344516 6.92977208,8.97173894 7.79427857,8.84938472 L5.11,6.16636906 L6.17066017,5.10570888 Z M13.6472463,3.24132054 C13.9810261,2.90754072 14.4789671,2.9130094 14.8674673,3.30150961 L14.8674673,3.30150961 L20.7004391,9.13448145 C21.0834707,9.51751298 21.094408,10.0209227 20.7606282,10.3547025 C20.5964782,10.5188524 20.3392935,10.6337619 20.0109936,10.6775337 C19.35984,10.7596087 18.1888707,10.6173559 16.9358264,10.2726275 L16.9358264,10.2726275 L15.321,12.136 L11.859,8.674 L13.7238638,7.0606649 C13.4037485,5.89711337 13.2582263,4.80434023 13.3047845,4.13281624 L13.3189463,3.98548649 C13.3627182,3.65718655 13.4830963,3.40547051 13.6472463,3.24132054 Z" id="pin_remove" fill="#3674D3" fill-rule="nonzero"></path>
</svg>
