<svg xmlns="http://www.w3.org/2000/svg"
    width="24" 
    height="24" 
    viewBox="0 0 24 24">
        <path 
            fill-rule="evenodd"
            d="M12.5,20 C12.7761424,20 13,20.2238576 13,20.5 L13,23 C13,23.5522847 12.5522847,24 12,24 C11.4477153,24 11,23.5522847 11,23 L11,20.5 C11,20.2238576 11.2238576,20 11.5,20 L12.5,20 Z M18,12 C19.1045695,12 20,12.8954305 20,14 L20,14 L20,17 C20,18.1045695 19.1045695,19 18,19 L18,19 L6.32842712,19 C5.79799415,19 5.28928632,18.7892863 4.91421356,18.4142136 L4.91421356,18.4142136 L2.70710678,16.2071068 C2.31658249,15.8165825 2.31658249,15.1834175 2.70710678,14.7928932 L2.70710678,14.7928932 L4.91421356,12.5857864 C5.28928632,12.2107137 5.79799415,12 6.32842712,12 L6.32842712,12 Z M17.6715729,4 C18.2020059,4 18.7107137,4.21071368 19.0857864,4.58578644 L21.2928932,6.79289322 C21.6834175,7.18341751 21.6834175,7.81658249 21.2928932,8.20710678 L19.0857864,10.4142136 C18.7107137,10.7892863 18.2020059,11 17.6715729,11 L6,11 C4.8954305,11 4,10.1045695 4,9 L4,6 C4,4.8954305 4.8954305,4 6,4 L17.6715729,4 Z M12,0 C12.5522847,-1.01453063e-16 13,0.44771525 13,1 L13,2.5 C13,2.77614237 12.7761424,3 12.5,3 L11.5,3 C11.2238576,3 11,2.77614237 11,2.5 L11,1 C11,0.44771525 11.4477153,1.01453063e-16 12,0 Z"/>
</svg>