<svg xmlns="http://www.w3.org/2000/svg"
	 width="24"
	 height="24"
	 viewBox="0 0 24 24">
	<g
		fill="none"
		fill-rule="evenodd">
		<path
			fill="#000"
			d="M4,2 C2.899,2.005 2.0097656,2.899 2.0097656,4 L2,22 L6,18 L14.349609,18 C15.173609,15.671 17.389,14 20,14 C20.702,14 21.374,14.127609 22,14.349609 L22,4 C21.997,2.897 21.104,2.003 20,2 L4,2 Z M6,6 L18,6 L18,8 L6,8 L6,6 Z M6,9 L18,9 L18,11 L6,11 L6,9 Z M6,12 L14,12 L14,14 L6,14 L6,12 Z"/>
		<path
			fill="#3D94F5"
			d="M20,16 C22.209,16 24,17.791 24,20 C24,22.209 22.209,24 20,24 C17.791,24 16,22.209 16,20 C16,17.791 17.791,16 20,16"
			id="blue"/>
	</g>
</svg>
