<svg xmlns="http://www.w3.org/2000/svg"
	 width="24"
	 height="24"
	 viewBox="0 0 24 24">
	<path
		fill-rule="evenodd"
		d="M11.8888889,22 C11.2222431,22 10.6889265,21.4667549 10.6889265,20.805531 C10.6889265,20.3737864 10.9185489,19.9986761 11.259279,19.7883201 L9.2815632,16.472639 L5.41501771,16.4064431 C5.41501771,16.8183289 5.19280246,17.2199176 4.80762934,17.4405708 C4.62244996,17.5494263 4.41504906,17.600912 4.20764815,17.600912 C3.79284633,17.600912 3.38545169,17.384672 3.16323644,17 C2.82991355,16.4270374 3.02250011,15.694469 3.60025978,15.3634893 C3.77803198,15.2605178 3.97802572,15.2097676 4.17801945,15.204619 C4.18542662,15.204619 4.20024097,15.204619 4.20764815,15.204619 C4.40764188,15.204619 4.60763561,15.2553692 4.78540782,15.3517211 L6.68164468,11.9933804 L4.80762934,8.63577523 C4.62244996,8.74021771 4.41504906,8.79538099 4.20024097,8.79538099 C3.99284007,8.79538099 3.79284633,8.74389526 3.60025978,8.63577523 C3.02250011,8.30553104 2.82991355,7.57222713 3.16323644,6.99926449 C3.37063734,6.64180641 3.73358893,6.42630185 4.11876205,6.39908797 C4.14839075,6.39688144 4.17061227,6.39614593 4.20024097,6.39614593 C4.40764188,6.39614593 4.62244996,6.44836717 4.80762934,6.55869373 C5.18539528,6.77419829 5.40020336,7.1618123 5.40761054,7.563401 L9.28897037,7.5141218 L11.2815005,4.23006767 C10.9259561,4.02265372 10.6889265,3.63651074 10.6889265,3.19446896 C10.6889265,2.53250956 11.2222431,2 11.8888889,2 C12.5555347,2 13.0888513,2.53250956 13.0888513,3.19446896 C13.0888513,3.62547808 12.8592288,4.00058841 12.5184988,4.21167991 L14.4962146,7.52662548 L18.3627601,7.59429244 C18.3627601,7.18167108 18.5775681,6.78008238 18.9701484,6.55869373 C19.1479206,6.45498676 19.3479144,6.40423654 19.5405009,6.39908797 C19.5479081,6.39835246 19.5627225,6.39835246 19.5701296,6.39835246 C19.9849314,6.39835246 20.3923261,6.61532804 20.6145413,6.99926449 C20.9478642,7.57222713 20.7552777,8.30553104 20.177518,8.63577523 C19.9849314,8.74463077 19.7775305,8.7961165 19.5775368,8.7961165 C19.3701359,8.7961165 19.1701422,8.74463077 18.99237,8.6475434 L17.0961331,12.0058841 L18.9701484,15.3634893 C19.1256991,15.275228 19.3034713,15.2171227 19.4886507,15.204619 C19.5108722,15.203148 19.5405009,15.201677 19.5701296,15.201677 C19.7775305,15.201677 19.9849314,15.2546337 20.177518,15.3634893 C20.7552777,15.694469 20.9478642,16.4270374 20.6145413,17 C20.3923261,17.3854075 19.9849314,17.600912 19.5701296,17.600912 C19.3627287,17.600912 19.1553278,17.5494263 18.9701484,17.4405708 C18.5923825,17.2250662 18.3775744,16.8374522 18.3701672,16.4358635 L14.4888074,16.4858782 L12.4962773,19.7699323 C12.8518217,19.9773463 13.0888513,20.3627538 13.0888513,20.805531 C13.0888513,21.4667549 12.5555347,22 11.8888889,22"/>
</svg>
