<svg xmlns="http://www.w3.org/2000/svg" width="16" height="16" fill="none"><path fill="#000000" fill-rule="evenodd" d="m6.456 5.042-.749-.75a1 1 0 0 0-1.414 1.415l.75.75a.56.56 0 0 1 .116.577 2.996 2.996 0 0 0 0 1.932.56.56 0 0 1-.117.578l-.75.749a1 1 0 1 0 1.415 1.414l.75-.75a.56.56 0 0 1 .577-.116 2.997 2.997 0 0 0 1.932 0 .56.56 0 0 1 .578.117l.749.75a1 1 0 0 0 1.414-1.415l-.75-.75a.56.56 0 0 1-.116-.577 2.997 2.997 0 0 0 0-1.932.56.56 0 0 1 .117-.578l.75-.749a1 1 0 0 0-1.415-1.414l-.75.75a.56.56 0 0 1-.577.116 2.996 2.996 0 0 0-1.932 0 .56.56 0 0 1-.578-.117ZM8 7a1 1 0 1 0 0 2 1 1 0 0 0 0-2Z" clip-rule="evenodd"/><path fill="#000" fill-rule="evenodd" d="M5 0a5 5 0 0 0-5 5v8a3 3 0 0 0 3 3h8a5 5 0 0 0 5-5V5a5 5 0 0 0-5-5H5ZM2 5a3 3 0 0 1 3-3h6a3 3 0 0 1 3 3v6a3 3 0 0 1-3 3H3a1 1 0 0 1-1-1V5Z" clip-rule="evenodd"/></svg>