<svg xmlns="http://www.w3.org/2000/svg"
	 width="24"
	 height="24"
	 viewBox="0 0 24 24">
	<path
		fill-rule="evenodd"
		d="M16,8 C18.33,8 23,9.17 23,11.5 L23,14 L17,14 L17,13.643 C17,11.364 13.527,9.951 10.546,9.403 C12.118,8.47 14.526,8 16,8 Z M8,11 C10.33,11 15,12.17 15,14.5 L15,17 L1,17 L1,14.5 C1,12.17 5.67,11 8,11 Z M8,9 C6.34,9 5,7.66 5,6 C5,4.34 6.34,3 8,3 C9.66,3 10.99,4.34 10.99,6 C10.99,7.66 9.66,9 8,9 Z M16,6 C14.34,6 13,4.66 13,3 C13,1.34 14.34,0 16,0 C17.66,0 18.99,1.34 18.99,3 C18.99,4.66 17.66,6 16,6 Z M24,19 L24,21 L21,21 L21,24 L19,24 L19,21 L16,21 L16,19 L19,19 L19,16 L21,16 L21,19 L24,19 Z"/>
</svg>
