<?xml version="1.0" encoding="UTF-8"?>
<svg xmlns="http://www.w3.org/2000/svg"
    width="24"
    height="24"
    viewBox="0 0 24 24">
    <path
        fill-rule="evenodd"
        d="M11,0 C17.0756663,0 22,4.92535956 22,11.0004587 C22,17.0755574 17.0756663,22 11,22 C4.92525,22 0,17.0755574 0,11.0004587 C0,4.92535956 4.92525,0 11,0 Z M11,2 C6.02980238,2 2,6.02994618 2,11.0004587 C2,15.9707444 6.02957597,20 11,20 C15.9709981,20 20,15.9710866 20,11.0004587 C20,6.02960393 15.9707717,2 11,2 Z M11.4059795,5 L15,8.426 L12.2934697,11 L15,13.574 L11.4059795,17 L10.7765539,17 L10.7765539,12.446 L7.88749017,15.2 L7,14.348 L10.5184894,11 L7,7.64599999 L7.88749017,6.8 L10.7765539,9.54799997 L10.7765539,5 L11.4059795,5 Z M12.0354052,12.446 L12.0354052,14.7019999 L13.2187254,13.574 L12.0354052,12.446 Z M12.0354052,7.298 L12.0354052,9.54799997 L13.2187254,8.426 L12.0354052,7.298 Z"/>
</svg>