<svg xmlns="http://www.w3.org/2000/svg"
	 width="24"
	 height="24"
	 viewBox="0 0 24 24">
	<path
		fill-rule="evenodd"
		d="M13.260098,13.656534 C11.648538,13.656534 10.343466,12.350629 10.343466,10.739902 C10.343466,9.128342 11.648538,7.8232698 13.260098,7.8232698 C14.871658,7.8232698 16.17673,9.128342 16.17673,10.739902 C16.17673,12.350629 14.871658,13.656534 13.260098,13.656534 M13.260098,2 C10.877322,2 8.7252436,2.9627717 7.1486633,4.5110352 C7.1236783,4.5301912 7.0936953,4.5393522 7.0703753,4.5618392 C7.0545513,4.5784962 7.0487213,4.6001502 7.0337303,4.6176402 C7.0212373,4.6309662 7.0062463,4.6426252 6.9937533,4.6551182 L7.0020833,4.6651082 C6.762222,4.9915882 6.7763804,5.4454901 7.0703753,5.7394853 C7.3660362,6.0351462 7.8199381,6.0476389 8.1455814,5.8077783 L8.1697344,5.8319313 C9.4556509,4.5060381 11.252936,3.6790206 13.24594,3.6790206 C17.15366,3.6790206 20.321812,6.8463396 20.321812,10.75406 C20.321812,12.403098 19.748813,13.913884 18.801866,15.115683 L17.617556,13.931373 C18.269676,13.038561 18.659449,11.944199 18.659449,10.755726 C18.659449,7.7649704 16.23503,5.3405513 13.244274,5.3405513 C11.800117,5.3405513 10.49088,5.910219 9.5197801,6.8330141 L9.5131201,6.8271841 L3.7015101,12.637128 L3.7090101,12.644628 C2.6596152,13.632381 2,15.029899 2,16.585658 C2,19.574748 4.4252519,22 7.4143416,22 C8.9701008,22 10.367619,21.340385 11.355376,20.290997 L11.377026,20.312647 L16.510698,15.179808 L18.260511,16.92962 C18.554506,17.223616 19.009241,17.237774 19.334884,16.99791 L19.344884,17.00621 C19.357374,16.99372 19.369034,16.97873 19.382364,16.96623 C19.399854,16.95124 19.421504,16.94541 19.438164,16.92958 C19.460654,16.90626 19.469814,16.87628 19.488964,16.85129 C21.037228,15.274756 22,13.122678 22,10.739069 C22,5.9127176 18.087282,2 13.260098,2"/>
</svg>
