<svg xmlns="http://www.w3.org/2000/svg"
	width="24"
	height="24"
	viewBox="0 0 24 24"
	version="1.1">
	<path d="M 12,2 C 6.4775055,2 2,6.4775055 2,12 2,17.522494 6.4775055,22 12,22 17.522494,22 22,17.522494 22,12 22,6.4775055 17.522494,2 12,2 Z m 1.333989,6.6660156 v 3.9999594 c -5.9e-5,0.338424 -0.253673,0.623109 -0.589843,0.662109 l -0.07813,0.0059 H 10 C 9.6315557,13.333625 9.333265,13.03446 9.3339806,12.666021 l 0.00391,-0.07813 C 9.3778017,12.252495 9.662238,11.999943 10,12 h 2 V 8.6660156 C 12.000359,8.2983339 12.298334,8.0003587 12.666016,8 c 0.368444,-7.194e-4 0.667609,0.2975713 0.667973,0.6660156 z" />
</svg>
