<svg xmlns="http://www.w3.org/2000/svg"
	 width="24"
	 height="24"
	 viewBox="0 0 24 24">
	<path
		fill-rule="evenodd"
		d="M13.25,15.3333333 C10.7191667,15.3333333 8.66666667,13.2808333 8.66666667,10.75 C8.66666667,8.21916667 10.7191667,6.16666667 13.25,6.16666667 C15.7808333,6.16666667 17.8333333,8.21916667 17.8333333,10.75 C17.8333333,13.2808333 15.7808333,15.3333333 13.25,15.3333333 Z M5.33333333,20.3333333 C4.41333333,20.3333333 3.66666667,19.5866667 3.66666667,18.6666667 L3.66666667,17.5233333 C4.40666667,18.6375 5.3625,19.5933333 6.47666667,20.3333333 L5.33333333,20.3333333 Z M20.0633333,6.105 L18.8816667,7.28666667 L17.545,5.95 L18.8066667,4.69 C17.02,3.02583333 14.6325,2 12,2 C6.4775,2 2,6.4775 2,12 L2,18.6666667 C2,20.5075 3.4925,22 5.33333333,22 L12,22 C17.5225,22 22,17.5225 22,12 C22,9.7925 21.275,7.75916667 20.0633333,6.105 Z"/>
</svg>
