<svg width="24" height="24" xmlns="http://www.w3.org/2000/svg"><path d="M12 13c3.866 0 7 1.79 7 4v1.5c0 1.38-3.134 2.5-7 2.5l-.289-.002C7.98 20.944 5 19.846 5 18.5V17l.005-.153C5.146 14.709 8.224 13 12 13zm-8-1c.667 0 1 .333 1 1 0 .308-.19.52-.452.785l-.136.137C3.822 14.515 3 15.436 3 18c0 .97-2.82.059-2.992-1.821L0 16v-1c0-2 2-3 4-3zm16 0c2 0 4 1 4 3v1l-.008.179C23.82 18.059 21 18.969 21 18c0-2.564-.822-3.485-1.412-4.078l-.136-.137C19.189 13.52 19 13.308 19 13c0-.667.333-1 1-1zm-8-9a4 4 0 110 8 4 4 0 010-8zM5 4l.117.007a1 1 0 01.876.876L6 5v4a1 1 0 01-1 1 3 3 0 110-6zm14 0a3 3 0 010 6 1 1 0 01-1-1V5l.007-.117a1 1 0 01.876-.876z" fill="#000" fill-rule="evenodd"/></svg>