<svg xmlns="http://www.w3.org/2000/svg"
	 width="24"
	 height="24"
	 viewBox="0 0 24 24">
	<path
		fill-rule="evenodd"
		d="M16.2868807,3.4541427 C17.9781612,3.6077745 19.3180801,4.909 19.5599998,6.5696524 C20.3548795,6.5696524 21,7.2177641 21,8.015935 L21,11.871021 C21,12.669906 20.3548795,13.317303 19.5599998,13.317303 L19.5599998,13.782486 C19.5599998,18.321412 15.8534407,22 11.2800005,22 C9.64560026,22 8.12568024,21.523384 6.84264008,20.712351 C6.5128801,21.06892 6.04343999,21.297581 5.51567997,21.297581 C4.51920008,21.297581 3.71135999,20.496552 3.71135999,19.509736 C3.71135999,18.987388 3.94247997,18.522205 4.3031999,18.194934 C3.48168007,16.919433 3,15.408125 3,13.782486 L3,6.9941048 C3,5.0204723 4.61136008,3.4212726 6.60000006,3.4212726 L11.7710402,3.4212726 C11.6947233,3.2833613 11.6400003,3.1325878 11.6400003,2.9632356 C11.6400003,2.4308836 12.0698402,2 12.5997603,2 L15.4797607,2 C16.0096808,2 16.4402411,2.4308836 16.4402411,2.9632356 C16.4402411,3.1468791 16.375441,3.3083712 16.2868807,3.4541427 Z M7,8 L7,9.5 L15.9904785,9.5 L15.9904785,8 L7,8 Z M7,11 L7,12.5 L15.9904785,12.5 L15.9904785,11 L7,11 Z M7,14 L7,15.5 L15.9904785,15.5 L15.9904785,14 L7,14 Z"/>
</svg>
