<svg xmlns="http://www.w3.org/2000/svg"
	 width="24"
	 height="24"
	 viewBox="0 0 24 24">
	<path
		fill-rule="evenodd"
		d="M12,2 C6.4775,2 2,6.4775 2,12 C2,17.523333 6.4775,22 12,22 C17.5225,22 22,17.523333 22,12 C22,6.4775 17.5225,2 12,2 Z M12.160156,5.9648438 C12.398714,5.9648438 12.58681,6.090481 12.681641,6.1875 C12.776451,6.28445 12.819752,6.3680035 12.857422,6.4453125 C12.932742,6.5998595 12.973709,6.7452506 13.015625,6.9160156 C13.099455,7.2577626 13.16688,7.6918904 13.234375,8.208984 C13.369366,9.243027 13.493567,10.593834 13.623047,11.941406 C13.731502,13.07065 13.848867,14.10658 13.972656,15.019531 C14.036036,14.515019 14.10595,14.060378 14.160156,13.498047 C14.252126,12.544223 14.335557,11.584867 14.4375,10.839844 C14.48846,10.467332 14.541912,10.15175 14.617188,9.884766 C14.654838,9.751383 14.692518,9.632625 14.775391,9.492188 C14.858291,9.351605 15.052781,9.089989 15.431641,9.089844 C15.640594,9.089698 15.792214,9.185384 15.875,9.255859 C15.95774,9.326409 15.997071,9.385365 16.029297,9.435547 C16.093727,9.536057 16.124577,9.613192 16.15625,9.697266 C16.21957,9.865485 16.271321,10.053717 16.326172,10.275391 C16.435917,10.718521 16.547302,11.281284 16.658203,11.841797 C16.720743,12.157726 16.775734,12.412672 16.833984,12.699219 C17.322477,12.099797 18.156988,11.462338 19.359375,11.484375 C19.5879484,11.4881411 19.7971418,11.6135885 19.9081252,11.8134452 C20.0191085,12.0133019 20.0150135,12.2571915 19.8973832,12.4532097 C19.7797529,12.6492278 19.566466,12.7675816 19.337895,12.763672 C18.54386,12.749122 18.129298,13.109086 17.79102,13.541016 C17.621847,13.756944 17.490276,13.986138 17.37891,14.183594 C17.32324,14.282284 17.277083,14.371357 17.208988,14.470703 C17.174938,14.520163 17.137598,14.572541 17.062504,14.642578 C16.987384,14.713128 16.849296,14.835263 16.589848,14.839844 C16.320932,14.847844 16.164675,14.704262 16.091801,14.626953 C16.018931,14.550153 15.991424,14.495911 15.966801,14.449219 C15.917591,14.355909 15.894811,14.284497 15.869141,14.205078 C15.817841,14.046386 15.772151,13.862641 15.722656,13.644531 C15.662586,13.379511 15.594682,13.02932 15.529297,12.701172 C15.497857,13.027429 15.466267,13.28211 15.433597,13.621094 C15.340917,14.582264 15.240846,15.547498 15.101565,16.308594 C15.031935,16.689179 14.957943,17.015252 14.843753,17.300781 C14.786613,17.443546 14.722197,17.577876 14.603519,17.71875 C14.484884,17.859624 14.25876,18.031956 13.968753,18.035156 C13.581603,18.043156 13.367883,17.779079 13.265628,17.617188 C13.163373,17.455296 13.109582,17.301655 13.054688,17.125 C12.944876,16.771688 12.85853,16.333231 12.777344,15.8125 C12.615061,14.770966 12.479444,13.416025 12.349609,12.064453 C12.267309,11.207574 12.18772,10.488396 12.107422,9.724609 C11.998767,10.492105 11.891553,11.217381 11.779297,12.080078 C11.603747,13.429323 11.424125,14.782196 11.236328,15.820312 C11.142448,16.33937 11.04953,16.775991 10.939453,17.123047 C10.884423,17.296649 10.831001,17.446362 10.738281,17.601562 C10.645601,17.756692 10.473821,18.030356 10.052734,18.035156 L10.050834,18.035156 C9.7376024,18.035156 9.5149831,17.847894 9.4043501,17.708984 C9.2937391,17.570147 9.2359658,17.441499 9.1816938,17.302734 C9.0731278,17.025278 8.9972433,16.703411 8.9238813,16.326172 C8.7771323,15.571767 8.6573583,14.60917 8.5488813,13.648438 C8.5152813,13.350689 8.4870013,13.127202 8.4551313,12.837891 C8.4109713,13.105384 8.3653863,13.400293 8.324272,13.621094 C8.283872,13.837823 8.245807,14.022295 8.2012251,14.181641 C8.1789951,14.261641 8.1596341,14.331515 8.1133341,14.427734 C8.0901341,14.475734 8.0626671,14.531971 7.9902873,14.613281 C7.9179673,14.694441 7.7583784,14.839626 7.4922404,14.839844 C7.2356374,14.839844 7.0908658,14.718839 7.0137248,14.648438 C6.9365148,14.577898 6.8996243,14.52421 6.8652873,14.474609 C6.7965173,14.375479 6.7487723,14.288571 6.6934123,14.191406 C6.5825924,13.997151 6.452223,13.77234 6.28125,13.558594 C5.939372,13.1311 5.5060211,12.760836 4.6582031,12.763672 C4.42966554,12.7643903 4.21810697,12.6431238 4.10322753,12.445557 C3.98834809,12.2479902 3.9876028,12.0041418 4.10127244,11.8058764 C4.21494207,11.6076111 4.42575542,11.4850537 4.6542931,11.484375 C5.8553691,11.476375 6.6856242,12.080422 7.1874962,12.664062 C7.2321262,12.394825 7.2729892,12.162524 7.3222618,11.869141 C7.4165118,11.308047 7.5174886,10.744546 7.6308556,10.291016 C7.6875456,10.064251 7.7439371,9.86717 7.8261681,9.681641 C7.8673119,9.588841 7.909218,9.49899 8,9.390625 C8.09081,9.282043 8.2759916,9.111909 8.5722656,9.111328 C8.5729156,9.11132701 8.5735656,9.11132701 8.5742156,9.111328 C8.8191955,9.111328 8.9987942,9.244301 9.0839812,9.335938 C9.1691012,9.427578 9.2042138,9.500307 9.2343718,9.564453 C9.2946418,9.69289 9.3247908,9.801334 9.3554656,9.927734 C9.4167856,10.180463 9.4651718,10.491009 9.5156218,10.859375 C9.6165868,11.596107 9.7147634,12.55219 9.8222624,13.503906 C9.8895224,14.099619 9.9703758,14.589621 10.046872,15.117188 C10.202203,14.183217 10.357083,13.087524 10.509766,11.914063 C10.685051,10.566999 10.858143,9.216474 11.03125,8.183594 C11.11781,7.6671547 11.202418,7.2349703 11.298828,6.8945312 C11.347008,6.7244943 11.393368,6.5787174 11.472656,6.4277344 C11.512306,6.3525344 11.556756,6.2721245 11.650391,6.1796875 C11.744001,6.0871075 11.922133,5.9654987 12.160156,5.9648438 Z"/>
</svg>
