<?xml version="1.0" encoding="UTF-8"?>
<svg xmlns="http://www.w3.org/2000/svg"
    width="24"
    height="24"
    viewBox="0 0 24 24">
    <path
        fill-rule="evenodd"
        d="M11,0 C17.0756663,0 22,4.92535956 22,11.0004587 C22,17.0755574 17.0756663,22 11,22 C4.92525,22 0,17.0755574 0,11.0004587 C0,4.92535956 4.92525,0 11,0 Z M11,2 C6.02980238,2 2,6.02994618 2,11.0004587 C2,15.9707444 6.02957597,20 11,20 C15.9709981,20 20,15.9710866 20,11.0004587 C20,6.02960393 15.9707717,2 11,2 Z M7.36539383,6.8 L7.98,7.4 L11.663,10.998 L11.6616753,11 L13.002,12.307 L15.4997471,14.7477096 L15.499,14.746 L15.5,14.7475501 L14.6522782,15.6216841 L13.43,14.423 L10.7962814,17 L10.1825269,17 L10.1825269,12.446 L7.36539383,15.2 L6.5,14.348 L9.93088761,11 L6.5,7.646 L7.36539383,6.8 Z M11.4100359,12.446 L11.4100359,14.702 L12.5638944,13.574 L11.4100359,12.446 Z M10.7962814,5 L14.3008196,8.426 L12.456,10.225 L11.581,9.381 L12.5638944,8.426 L11.4100359,7.298 L11.41,9.216 L10.182,8.032 L10.1825269,5 L10.7962814,5 Z"/>
</svg>