<svg xmlns="http://www.w3.org/2000/svg"
	 width="24"
	 height="24"
	 viewBox="0 0 24 24">
	<path
		fill-rule="evenodd"
		d="M12,19.5 C7.858125,19.5 4.5,16.1425 4.5,12 C4.5,7.858125 7.858125,4.5 12,4.5 C16.141875,4.5 19.5,7.858125 19.5,12 C19.5,16.1425 16.141875,19.5 12,19.5 Z M12,3.6666667 C7.3983333,3.6666667 3.6666667,7.3983333 3.6666667,12 C3.6666667,16.6025 7.3983333,20.333333 12,20.333333 C16.601667,20.333333 20.333333,16.6025 20.333333,12 C20.333333,7.3983333 16.601667,3.6666667 12,3.6666667 Z M12,22 C6.4775,22 2,17.523333 2,12 C2,6.4775 6.4775,2 12,2 C17.5225,2 22,6.4775 22,12 C22,17.523333 17.5225,22 12,22 Z M11.25,18 L12.75,18 L12.75,16.301875 C14.8725,15.911875 16.5,13.913125 16.5,11.5 L15,11.5 C15,13.295625 13.6575,14.75 12,14.75 C10.3425,14.75 9,13.295625 9,11.5 L7.5,11.5 C7.5,13.913125 9.1275,15.911875 11.25,16.301875 L11.25,18 Z M13.5,11.6285714 L13.5,8.54285714 C13.5,7.69428571 12.825,7 12,7 C11.175,7 10.5,7.69428571 10.5,8.54285714 L10.5,11.6285714 C10.5,12.4771429 11.175,13.1714286 12,13.1714286 C12.825,13.1714286 13.5,12.4771429 13.5,11.6285714 Z"/>
</svg>
