<svg xmlns="http://www.w3.org/2000/svg"
	 width="24"
	 height="24"
	 viewBox="0 0 24 24">
	<path
		fill-rule="evenodd"
		d="M12,2 C17.523333,2 22,6.4775996 22,12.000417 C22,17.523234 17.523333,22 12,22 C6.4775,22 2,17.523234 2,12.000417 C2,6.4775996 6.4775,2 12,2 Z M16,9.59402046 L12.4059795,6 L11.7765539,6 L11.7765539,10.7710464 L8.88749017,7.88827695 L8,8.77576711 L11.5184894,12.2942565 L8,15.8064516 L8.88749017,16.700236 L11.7765539,13.8111723 L11.7765539,18.588513 L12.4059795,18.588513 L16,14.9944925 L13.2934697,12.2942565 L16,9.59402046 Z M14.2187254,14.9944925 L13.0354052,16.1778127 L13.0354052,13.8111723 L14.2187254,14.9944925 Z M13.0354052,8.41070024 L14.2187254,9.59402046 L13.0354052,10.7710464 L13.0354052,8.41070024 Z"/>
</svg>
