<?xml version="1.0" encoding="UTF-8"?>
<svg width="32px" height="32px" viewBox="0 0 32 32" version="1.1" xmlns="http://www.w3.org/2000/svg" xmlns:xlink="http://www.w3.org/1999/xlink">
    <title>00 In Use / Android / ic_qrcode_scan</title>
    <g id="00-In-Use-/-Android-/-ic_qrcode_scan" stroke="none" stroke-width="1" fill="none" fill-rule="evenodd">
        <path d="M8,8 L14,8 L14,14 L8,14 L8,8 M24,8 L24,14 L18,14 L18,8 L24,8 M18,19 L20,19 L20,17 L18,17 L18,15 L20,15 L20,17 L22,17 L22,15 L24,15 L24,17 L22,17 L22,19 L24,19 L24,22 L22,22 L22,24 L20,24 L20,22 L17,22 L17,24 L15,24 L15,20 L18,20 L18,19 M20,19 L20,22 L22,22 L22,19 L20,19 M8,24 L8,18 L14,18 L14,24 L8,24 M10,10 L10,12 L12,12 L12,10 L10,10 M20,10 L20,12 L22,12 L22,10 L20,10 M10,20 L10,22 L12,22 L12,20 L10,20 M8,15 L10,15 L10,17 L8,17 L8,15 M13,15 L17,15 L17,19 L15,19 L15,17 L13,17 L13,15 M15,10 L17,10 L17,14 L15,14 L15,10 M6,6 L6,10 L4,10 L4,6 C4,4.8954305 4.8954305,4 6,4 L10,4 L10,6 L6,6 M26,4 C27.1045695,4 28,4.8954305 28,6 L28,10 L26,10 L26,6 L22,6 L22,4 L26,4 M6,22 L6,26 L10,26 L10,28 L6,28 C4.8954305,28 4,27.1045695 4,26 L4,22 L6,22 M26,26 L26,22 L28,22 L28,26 C28,27.1045695 27.1045695,28 26,28 L22,28 L22,26 L26,26 Z" id="Shape" fill="#000000" fill-rule="nonzero"></path>
    </g>
</svg>