<?xml version="1.0" encoding="UTF-8"?>
<svg
	width="24px"
	height="24px"
	viewBox="0 0 24 24"
	version="1.1"
	xmlns="http://www.w3.org/2000/svg">
    <path
        d="M9,4 C8.44772,4 8,4.44772 8,5 L8,5.97484 C8,7.08476 8.35213,8.11342 9.04568,8.85118 C9.55637,9.39441 10.1475,9.96122 10.7247,10.3848 C11.3435,10.8391 11.7756,11 12,11 C12.2244,11 12.6565,10.8391 13.2753,10.3848 C13.8525,9.96122 14.4436,9.39441 14.9543,8.85118 C15.6479,8.11342 16,7.08476 16,5.97484 L16,5 C16,4.44772 15.5523,4 15,4 L9,4 Z M14.4588,11.9971 L14.4549,12 L14.4588,12.0029 C15.1759,12.5292 15.862,13.1944 16.4115,13.7789 C17.5176,14.9555 18,16.5077 18,18.0252 L18,19 C18,20.6569 16.6569,22 15,22 L9,22 C7.34315,22 6,20.6569 6,19 L6,18.0252 C6,16.5077 6.48243,14.9555 7.58849,13.7789 C8.13804,13.1944 8.8241,12.5292 9.54123,12.0029 L9.54513,12 L9.54123,11.9971 C8.8241,11.4708 8.13804,10.8056 7.58849,10.2211 C6.48243,9.04452 6,7.49232 6,5.97484 L6,5 C6,3.34315 7.34315,2 9,2 L15,2 C16.6569,2 18,3.34315 18,5 L18,5.97484 C18,7.49232 17.5176,9.04452 16.4115,10.2211 C15.862,10.8056 15.1759,11.4708 14.4588,11.9971 Z M15.7645,19.6446 C15.9114,19.4706 16,19.2456 16,19 L16,18.0252 C16,16.9152 15.6479,15.8866 14.9543,15.1488 C14.4436,14.6056 13.8525,14.0388 13.2753,13.6152 C12.6565,13.1609 12.2244,13 12,13 C11.7756,13 11.3435,13.1609 10.7247,13.6152 C10.1475,14.0388 9.55637,14.6056 9.04569,15.1488 C8.35213,15.8866 8,16.9152 8,18.0252 L8,19 C8,19.2456 8.08855,19.4706 8.23547,19.6446 C8.79076,18.1026 10.2666,17 12,17 C13.7334,17 15.2092,18.1026 15.7645,19.6446 Z"
        fill="#000000"/>
</svg>