<svg xmlns="http://www.w3.org/2000/svg"
	 width="24"
	 height="24"
	 viewBox="0 0 24 24">
	<path
		fill-rule="evenodd"
		d="M12,16 L12,18 L7,18 L7,13 C7,11.89 7.9,11 9,11 L10,11 L10,8 L7,8 L7,6 L10,6 C11.1,6 12,6.89 12,8 L12,11 C12,12.11 11.1,13 10,13 L9,13 L9,16 L12,16 Z M18,13 L18,16 C18,17.11 17.1,18 16,18 L13,18 L13,16 L16,16 L16,13 L13,13 L13,6 L18,6 L18,8 L15,8 L15,11 L16,11 C17.1,11 18,11.89 18,13 Z M1,18 L1,8 L0,8 L0,6 L3,6 L3,18 L1,18 Z M4,18 L4,16 L6,16 L6,18 L4,18 Z M21.2012935,13.0767098 L22.0164506,11 L23.9573009,11 L22.3593342,14.422366 L24.0155264,18 L22.0682066,18 L21.207763,15.8068392 L20.3537889,18 L18.3999996,18 L20.0561919,14.422366 L18.4711641,11 L20.4184839,11 L21.2012935,13.0767098 Z"/>
</svg>
