<svg xmlns="http://www.w3.org/2000/svg"
	 width="24"
	 height="24"
	 viewBox="0 0 24 24">
	<path
		fill="#30B350"
		fill-rule="evenodd"
		d="M12.008334,16.1667 L15.337501,10.3383 L8.6733342,10.3383 L12.008334,16.1667 Z M17.759168,11.4425 L14.156668,17.2825 C13.615001,18.1617 12.830001,18.6658 12.005001,18.6658 C11.179167,18.6658 10.394167,18.1617 9.8525012,17.2825 L6.2491672,11.4425 C5.6975002,10.5483 5.6041672,9.665 5.9875002,8.9567 C6.3791672,8.2325 7.1891672,7.8333 8.2683342,7.8333 L15.740834,7.8333 C16.820001,7.8333 17.630001,8.2325 18.021668,8.9567 C18.405001,9.665 18.311668,10.5483 17.759168,11.4425 Z M12.000001,2 C6.4766672,2 2.0000002,6.4775 2.0000002,12 C2.0000002,17.5225 6.4766672,22 12.000001,22 C17.522501,22 22.000001,17.5225 22.000001,12 C22.000001,6.4775 17.522501,2 12.000001,2 Z"/>
</svg>
