<svg xmlns="http://www.w3.org/2000/svg"
	 width="24"
	 height="24"
	 viewBox="0 0 24 24">
	<path
		fill="#3D94F5"
		d="M12.000001,2 C6.4771521,2 2.0000001,6.4771 2.0000001,12 C2.0000001,17.5228 6.4771481,22 12.000001,22 C17.52283,22 22.000001,17.5228 22.000001,12 C22.000001,6.4771 17.52283,2 12.000001,2 Z M12.000001,5.4198 C15.631922,5.4198 18.5743,8.368 18.5743,12 C18.5743,15.6319 15.631922,18.5743 12.000001,18.5743 C8.3680591,18.5743 5.4198151,15.6319 5.4198151,12 C5.4198151,8.368 8.3680591,5.4198 12.000001,5.4198 Z M12.000001,8.3974 C10.01055,8.3974 8.3973961,10.0105 8.3973961,12 C8.3973961,13.9895 10.01055,15.6026 12.000001,15.6026 C13.989492,15.6026 15.602605,13.9895 15.602605,12 C15.602585,10.0105 13.989472,8.3974 12.000001,8.3974 Z"/>
</svg>
