<svg xmlns="http://www.w3.org/2000/svg"
	 width="24"
	 height="24"
	 viewBox="0 0 24 24">
	<path
		fill="#30B350"
		d="M12.000001,2 C6.4771512,2 2.0000002,6.4771 2.0000002,12 C2.0000002,17.5228 6.4771512,22 12.000001,22 C17.522831,22 22.000001,17.5228 22.000001,12 C22.000001,6.4771 17.522831,2 12.000001,2 Z M12.000001,5.4198 C15.631925,5.4198 18.574303,8.368 18.574303,12 C18.574303,15.6319 15.631925,18.5743 12.000001,18.5743 C8.3680572,18.5743 5.4198122,15.6319 5.4198122,12 C5.4198122,8.368 8.3680572,5.4198 12.000001,5.4198 Z M12.000001,8.3974 C10.010548,8.3974 8.3973962,10.0105 8.3973962,12 C8.3973962,13.9895 10.010548,15.6026 12.000001,15.6026 C13.989491,15.6026 15.602604,13.9895 15.602604,12 C15.602586,10.0105 13.989473,8.3974 12.000001,8.3974 Z"/>
</svg>
