<svg xmlns="http://www.w3.org/2000/svg"
	 width="24"
	 height="24"
	 viewBox="0 0 24 24">
	<path
		fill="#424242"
		fill-rule="evenodd"
		d="M21.364168,8.5182 L18.187501,10.3516 C18.117501,10.7066 17.987501,11.0724 17.759168,11.4424 L14.156668,17.2824 C14.010834,17.5199 13.844168,17.7232 13.666668,17.9041 L13.666668,21.8507 C18.394168,21.0549 22.000001,16.9541 22.000001,11.9999 C22.000001,10.7741 21.767501,9.6041 21.364168,8.5182 Z M8.6733342,10.3382 L12.007501,16.1666 L15.337501,10.3382 L8.6733342,10.3382 Z M12.000001,21.9999 L12.003301,21.9999 L11.996601,21.9999 L11.999901,21.9999 L12.000001,21.9999 Z M8.2675002,7.8332 L15.740834,7.8332 C15.784164,7.8332 15.820004,7.8442 15.862501,7.8452 L19.705001,5.6268 C17.870834,3.4118 15.100001,2.0002 12.000001,2.0002 C8.8991672,2.0002 6.1291672,3.4118 4.2950002,5.6268 L8.1383342,7.846 C8.1833342,7.846 8.2216642,7.833 8.2675002,7.833 L8.2675002,7.8332 Z M6.2483342,11.4424 C6.0216672,11.0741 5.8925002,10.7107 5.8216672,10.3574 L2.6350002,8.5182 C2.2316672,9.6041 2.0000002,10.7741 2.0000002,11.9999 C2.0000002,16.9541 5.6050002,21.0549 10.333334,21.8507 L10.333334,17.8966 C10.159167,17.7182 9.9958342,17.5157 9.8525012,17.2824 L6.2483342,11.4424 Z"/>
</svg>
