<svg xmlns="http://www.w3.org/2000/svg"
	 width="24"
	 height="24"
	 viewBox="0 0 24 24">
	<path
		fill="#424242"
		d="M12.000001,2 C6.4767012,2 2.0000002,6.4771 2.0000002,12 C2.0000002,17.5233 6.4767012,22 12.000001,22 C17.5233,22 22.000001,17.5233 22.000001,12 C22.000001,6.4771 17.5233,2 12.000001,2 Z M13.649485,18.5979 L10.350516,18.5979 L10.350516,15.299 L13.649485,15.299 L13.649485,18.5979 Z M14.349692,11.8614 C13.552578,12.3818 13.31464,12.8305 13.287836,13.861 C13.284936,13.9728 13.193406,14.0618 13.08165,14.0618 L10.969073,14.0618 C10.912163,14.0618 10.762887,13.9126 10.762887,13.8556 L10.762887,13.0152 C10.762887,12.1328 11.237527,11.3575 12.219382,10.6416 C12.295672,10.5896 12.369898,10.5406 12.440413,10.4948 C12.893609,10.1979 13.030104,10.1084 13.030104,9.4466 C13.030104,8.8977 12.616908,8.5146 12.024743,8.5146 C11.181444,8.5146 10.711341,8.9369 10.665568,9.7439 C10.658968,9.8532 10.569078,9.9381 10.459794,9.9381 L10.350516,9.9381 L8.2387632,9.9381 C8.1822632,9.9381 8.1278352,9.9151 8.0894852,9.8741 C8.0503052,9.8331 8.0296952,9.7781 8.0329952,9.7215 C8.1476342,7.4815 9.6037172,6.197 12.027222,6.197 C13.865985,6.197 15.845367,7.1941 15.845367,9.3842 C15.844967,10.8514 15.510109,11.1286 14.349697,11.8613 L14.349692,11.8614 Z"/>
</svg>
