<svg xmlns="http://www.w3.org/2000/svg"
	 width="24"
	 height="24"
	 viewBox="0 0 24 24">
	<path
		fill="#30B350"
		d="M12.000001,2 C6.4771512,2 2.0000001,6.4771 2.0000001,12 C1.9999811,17.5228 6.4771512,22 12.000001,22 C17.522831,22 22.000001,17.5228 22.000001,12 C21.999982,6.4771 17.522831,2 12.000001,2 Z M11.964601,5.013 C15.043469,5.013 17.563922,7.4859 17.654469,10.5436 L17.672209,10.5436 L17.819624,16.5106 L14.505944,16.5926 L14.358548,10.6257 L15.720567,10.5907 C15.655797,8.5584 14.013718,6.9468 11.964661,6.9468 C9.9215476,6.9468 8.2766795,8.5491 8.2028869,10.573 L9.4882457,10.543 L9.6356608,16.51 L6.3219814,16.592 L6.180472,10.6251 L6.268925,10.6251 C6.316415,7.5296 8.8584157,5.0119 11.964661,5.0119 L11.964601,5.013 Z"/>
</svg>
