<svg xmlns="http://www.w3.org/2000/svg"
	 width="24"
	 height="24"
	 viewBox="0 0 24 24">
	<g
		fill="none"
		fill-rule="evenodd">
		<path
			fill="#3D94F5"
			fill-rule="nonzero"
			d="M12,2.0019531 C6.4771504,2.0019531 2,6.4790531 2,12.001953 C2,17.524753 6.4771504,22.001953 12,22.001953 C12.671389,22.001953 13.326619,21.932807 13.960938,21.806641 L13.466797,21.464844 L13.466797,18.404297 C12.994668,18.51194 12.504822,18.576172 12,18.576172 C8.3680561,18.576172 5.4199219,15.633853 5.4199219,12.001953 C5.4199219,8.3699531 8.3680561,5.421875 12,5.421875 C15.631924,5.421875 18.574219,8.3699531 18.574219,12.001953 C18.574219,13.49449 18.07185,14.865457 17.234375,15.96875 L20.533203,15.96875 L20.533203,17.195312 C21.457808,15.679924 22,13.907013 22,12.001953 C22,6.4790531 17.52283,2.0019531 12,2.0019531 Z M12,8.3984375 C10.010547,8.3984375 8.3964844,10.012453 8.3964844,12.001953 C8.3964844,13.991353 10.010547,15.603516 12,15.603516 C13.98949,15.603516 15.603516,13.991353 15.603516,12.001953 C15.603497,10.012453 13.989471,8.3984375 12,8.3984375 Z"/>
		<path
			fill="#FF9A02"
			fill-rule="nonzero"
			d="M13.466797,15.96875 C13.466797,17.800781 13.466797,19.632813 13.466797,21.464844 L17,23.912109 L20.533203,21.464844 L20.533203,15.96875 L13.466797,15.96875 Z"
			id="orange"/>
	</g>
</svg>
