<svg xmlns="http://www.w3.org/2000/svg"
	 width="24"
	 height="24"
	 viewBox="0 0 24 24">
	<path
		fill-rule="evenodd"
		d="M6,18 L6,16 L8,16 L8,18 L6,18 Z M15,13 L15,16 C15,17.11 14.1,18 13,18 L9,18 L9,16 L13,16 L13,13 L9,13 L9,6 L15,6 L15,8 L11,8 L11,11 L13,11 C14.1,11 15,11.89 15,13 Z M3,18 L3,8 L1,8 L1,6 L5,6 L5,18 L3,18 Z M19.2476895,13.0896488 L20.4251386,11 L22.4242144,11 L20.4316081,14.4288355 L22.5083179,18 L20.5027726,18 L19.254159,15.8003697 L18.0120148,18 L16,18 L18.0767098,14.4288355 L16.090573,11 L18.0961183,11 L19.2476895,13.0896488 Z"/>
</svg>
