<?xml version="1.0" encoding="UTF-8"?>
<svg
	width="24"
	height="24"
	viewBox="0 0 24 24"
	xmlns="http://www.w3.org/2000/svg">
	<path
		d="m12 20.9c-2.18 0-4.09-0.677-5.75-2.03-1.65-1.35-2.68-3.08-3.1-5.17h2.07c0.415 1.52 1.25 2.77 2.5 3.74 1.25 0.973 2.68 1.46 4.27 1.46 1.2 0 2.32-0.281 3.34-0.843 1.02-0.562 1.86-1.34 2.52-2.32h-2.29v-2.03h5.75v5.73h-2.05v-2.21c-0.843 1.15-1.91 2.06-3.18 2.71-1.27 0.649-2.64 0.973-4.09 0.973zm0.0218-6.76c-0.61 0-1.14-0.214-1.56-0.641-0.435-0.428-0.653-0.94-0.653-1.54 0-0.6 0.218-1.11 0.653-1.54 0.435-0.428 0.957-0.641 1.56-0.641 0.61 0 1.14 0.214 1.56 0.641 0.435 0.428 0.653 0.94 0.653 1.54 0 0.6-0.218 1.11-0.653 1.54-0.435 0.428-0.957 0.641-1.56 0.641zm-9.32-3.89v-5.73h2.07v2.16c0.843-1.14 1.9-2.03 3.17-2.66 1.27-0.632 2.63-0.949 4.09-0.949 2.2 0 4.12 0.674 5.77 2.02 1.65 1.35 2.69 3.07 3.11 5.16h-2.09c-0.421-1.52-1.26-2.77-2.51-3.75-1.25-0.973-2.68-1.45-4.29-1.45-1.19 0-2.3 0.285-3.32 0.859-1.02 0.57-1.86 1.34-2.51 2.31h2.29v2.03h-5.77z"/>
</svg>
