<svg xmlns="http://www.w3.org/2000/svg"
	 width="24"
	 height="24"
	 viewBox="0 0 24 24">
	<path d="M10,20 L4.9999998,20 L4.9999998,22 L10,22 L10,24 L13.000001,21 L10,18 L10,20 Z M14.000001,20 L14.000001,22 L19.000002,22 L19.000002,20 L14.000001,20 Z M12.000001,8 C13.105001,8 14.000001,7.105 14.000001,6 C14.000001,4.895 13.105001,4 12.000001,4 C10.895001,4 10.005,4.895 10.005,6 C10.0114,7.105 10.895001,8 12.000001,8 Z M17.000001,0 L7,0 C5.8949999,0 4.9999998,0.895 4.9999998,2 L4.9999998,16 C4.9999998,17.105 5.8949999,18 7,18 L17.000001,18 C18.105001,18 19.000002,17.105 19.000002,16 L19.000002,2 C19.000002,0.895 18.105001,0 17.000001,0 Z M7,2 L17.000001,2 L17.000001,12.5 C17.000001,10.835 13.665001,10 12.000001,10 C10.335,10 7,10.835 7,12.5 L7,2 Z"/>
</svg>
