<svg xmlns="http://www.w3.org/2000/svg"
	 width="24"
	 height="24"
	 viewBox="0 0 24 24">
	<path d="M10.000001,20 L5.0000019,20 L5.0000019,22 L10.000001,22 L10.000001,24 L13,21 L10.000001,18 L10.000001,20 Z M14.000001,20 L14.000001,22 L19,22 L19,20 L14.000001,20 Z M17,0 L7.0000016,0 C5.8950018,0 5.0000019,0.895 5.0000019,2 L5.0000019,16 C5.0000019,17.105 5.8950018,18 7.0000016,18 L17,18 C18.105,18 19,17.105 19,16 L19,2 C19,0.895 18.105,0 17,0 Z M11.995001,6 C10.890001,6 10.000001,5.105 10.000001,4 C10.000001,2.895 10.890001,2 11.995001,2 C13.100001,2 13.995001,2.895 13.995001,4 C13.995001,5.105 13.100001,6 11.995001,6 Z"/>
</svg>
