<svg xmlns="http://www.w3.org/2000/svg"
	 width="24"
	 height="24"
	 viewBox="0 0 24 24">
	<path
		fill="#3D94F5"
		d="M12.000001,2 C6.4771601,2 2.0000001,6.4771 2.0000001,12 C2.0000001,17.5229 6.4771601,22 12.000001,22 C17.522834,22 22.000001,17.5229 22.000001,12 C22.000001,6.4771 17.522834,2 12.000001,2 Z M12.000001,5.4375 C15.631924,5.4375 18.588541,8.3681 18.588541,12 C18.588541,15.0545 16.488808,17.6152 13.666668,18.3542 L13.666668,15.2031 C14.820151,14.6025 15.619791,13.3903 15.619791,12 C15.619768,10.0105 13.989474,8.4062 12.000001,8.4062 C10.01055,8.4062 8.4062501,10.0105 8.4062501,12 C8.4062501,13.3824 9.1905911,14.573 10.333334,15.1771 L10.333334,18.3542 C7.5098671,17.6152 5.4375001,15.0545 5.4375001,12 C5.4375001,8.3681 8.3680571,5.4375 12.000001,5.4375 Z"/>
</svg>
