<svg xmlns="http://www.w3.org/2000/svg"
	 width="24"
	 height="24"
	 viewBox="0 0 24 24">
	<path
		fill-rule="evenodd"
		d="M12,16 L12,18 L6,18 L6,13 C6,11.89 6.9,11 8,11 L10,11 L10,8 L6,8 L6,6 L10,6 C11.1,6 12,6.89 12,8 L12,11 C12,12.11 11.1,13 10,13 L8,13 L8,16 L12,16 Z M16.2476895,13.0896488 L17.4251386,11 L19.4242144,11 L17.4316081,14.4288355 L19.5083179,18 L17.5027726,18 L16.254159,15.8003697 L15.0120148,18 L13,18 L15.0767098,14.4288355 L13.090573,11 L15.0961183,11 L16.2476895,13.0896488 Z"/>
</svg>
