<svg xmlns="http://www.w3.org/2000/svg"
	 width="24"
	 height="24"
	 viewBox="0 0 24 24">
	<g
		fill="none"
		fill-rule="evenodd">
		<path
			fill="#424242"
			fill-rule="nonzero"
			d="M9.9238281,2.2128906 C5.3964695,3.1679906 2,7.1884 2,12 C2,16.8117 5.3964695,20.833863 9.9238281,21.789062 L9.9238281,18.238281 C7.3071487,17.370181 5.4199219,14.9073 5.4199219,12 C5.4199219,9.0927 7.3071487,6.6254594 9.9238281,5.7558594 L9.9238281,2.2128906 Z M14.076172,2.2128906 L14.076172,5.7558594 C16.690267,6.6260594 18.574219,9.0935 18.574219,12 C18.574219,13.49322 18.070619,14.865714 17.232422,15.96875 L20.533203,15.96875 L20.533203,17.203125 C21.459142,15.68624 22,13.90683 22,12 C22,7.1884 18.603512,3.1679906 14.076172,2.2128906 Z M12,8.3984375 C10.010547,8.3984375 8.3965223,10.0105 8.3964844,12 C8.3964844,13.9895 10.010547,15.603516 12,15.603516 C13.98949,15.603516 15.603516,13.9895 15.603516,12 C15.603479,10.0105 13.989471,8.3984375 12,8.3984375 Z"/>
		<path
			fill="#FF9A02"
			fill-rule="nonzero"
			d="M13.466797,15.96875 C13.466797,17.800781 13.466797,19.632813 13.466797,21.464844 L17,23.912109 L20.533203,21.464844 L20.533203,15.96875 L13.466797,15.96875 Z"
			id="orange"/>
	</g>
</svg>
