<svg xmlns="http://www.w3.org/2000/svg"
	 width="24"
	 height="24"
	 viewBox="0 0 24 24">
	<path
		fill="#424242"
		d="M9.9245291,2.2123 C5.3971693,3.1674 2.0000003,7.1885 2.0000003,12.0001 C2.0000003,16.8117 5.3971693,20.8327 9.9245291,21.7878 L9.9245291,18.2383 C7.3078503,17.3701 5.4198093,14.9073 5.4198093,12.0001 C5.4198093,9.0928 7.3078503,6.6256 9.9245291,5.7559 L9.9245291,2.2123 Z M14.075472,2.2123 L14.075472,5.7559 C16.689567,6.6262 18.574306,9.0936 18.574306,12.0001 C18.574306,14.9065 16.689567,17.3696 14.075472,18.2383 L14.075472,21.7878 C18.602812,20.8327 22.000001,16.8117 22.000001,12.0001 C22.000001,7.1885 18.602812,3.1674 14.075472,2.2123 Z M12.000001,8.3975 C10.010549,8.3975 8.3974341,10.0106 8.3973941,12.0001 C8.3973941,13.9895 10.010549,15.6026 12.000001,15.6026 C13.989492,15.6026 15.602606,13.9895 15.602606,12.0001 C15.602566,10.0106 13.989472,8.3975 12.000001,8.3975 Z"/>
</svg>
