<?xml version="1.0" encoding="UTF-8" standalone="no"?>
<svg
   fill="none"
   height="24"
   viewBox="0 0 24 24"
   width="24"
   version="1.1"
   id="svg8"
   sodipodi:docname="ic_translation.svg"
   inkscape:version="1.2.1 (9c6d41e, 2022-07-14)"
   xmlns:inkscape="http://www.inkscape.org/namespaces/inkscape"
   xmlns:sodipodi="http://sodipodi.sourceforge.net/DTD/sodipodi-0.dtd"
   xmlns="http://www.w3.org/2000/svg"
   xmlns:svg="http://www.w3.org/2000/svg">
  <defs
     id="defs12" />
  <sodipodi:namedview
     id="namedview10"
     pagecolor="#ffffff"
     bordercolor="#000000"
     borderopacity="0.25"
     inkscape:showpageshadow="2"
     inkscape:pageopacity="0.0"
     inkscape:pagecheckerboard="0"
     inkscape:deskcolor="#d1d1d1"
     showgrid="false"
     inkscape:zoom="42.791667"
     inkscape:cx="2.4303797"
     inkscape:cy="12.257059"
     inkscape:window-width="2530"
     inkscape:window-height="1365"
     inkscape:window-x="0"
     inkscape:window-y="25"
     inkscape:window-maximized="0"
     inkscape:current-layer="svg8" />
  <path
     id="path4"
     style="clip-rule:evenodd;fill:#000000;fill-opacity:1;fill-rule:evenodd;stroke-width:1"
     d="M 7.8330919,2 C 7.3728786,2 6.999793,2.3730813 6.999793,2.8332988 v 0.8332989 c 0,0.4602133 -0.3730855,0.8332988 -0.8332988,0.8332988 H 2.8332988 C 2.3730813,4.4998965 2,4.8729821 2,5.3331954 c 0,0.4602132 0.3730813,0.8332988 0.8332988,0.8332988 0.4602133,0 0.8300943,0.3735689 0.8512018,0.8332988 0.065564,1.4274965 0.3428246,2.7466328 1.2678512,3.938639 0.061339,0.07908 0.1255939,0.157286 0.1920493,0.234365 0.4121321,0.47848 0.312313,1.25873 -0.2799363,1.477804 -0.2041746,0.0755 -0.4160597,0.151859 -0.6363669,0.227855 -0.4350312,0.150159 -0.6660893,0.624461 -0.5159292,1.059527 0.1501601,0.43498 0.6244953,0.666089 1.0595265,0.515928 1.0184475,-0.351567 1.9046597,-0.709244 2.6740429,-1.082312 0.2440812,-0.11841 0.5306263,-0.11841 0.7747076,0 0.7693831,0.373068 1.6556121,0.730745 2.6740433,1.082312 0.435065,0.150161 0.909367,-0.08095 1.059526,-0.515928 0.15016,-0.435066 -0.08095,-0.909368 -0.515929,-1.059527 -0.220324,-0.076 -0.432209,-0.152358 -0.636367,-0.227855 -0.592274,-0.219074 -0.692085,-0.999324 -0.279937,-1.477804 0.06641,-0.07708 0.130719,-0.155285 0.19205,-0.234365 0.925043,-1.1920062 1.202271,-2.5111425 1.267852,-3.938639 0.02108,-0.4597299 0.390972,-0.8332988 0.851201,-0.8332988 0.460229,0 0.833299,-0.3730856 0.833299,-0.8332988 0,-0.4602133 -0.37307,-0.8332989 -0.833299,-0.8332989 H 9.4996896 c -0.4602217,0 -0.8332989,-0.3730855 -0.8332989,-0.8332988 V 2.8332988 C 8.6663907,2.3730813 8.2933052,2 7.8330919,2 Z M 6.1664942,6.1664942 h 3.3331954 c 0.4602132,0 0.8379254,0.3737105 0.8137684,0.8332988 -0.06412,1.2194554 -0.299647,2.1219055 -0.9163033,2.916546 -0.2761295,0.355835 -0.6421591,0.706371 -1.1311381,1.056271 -0.2591386,0.185409 -0.6067109,0.185409 -0.8658495,0 C 6.9111882,10.62271 6.5451586,10.272174 6.269029,9.916339 5.6523724,9.1216985 5.416848,8.2192484 5.3527258,6.999793 5.3285518,6.5402047 5.7062726,6.1664942 6.1664942,6.1664942 Z M 16.16608,8.6663907 c -0.333319,0 -0.635325,0.1981497 -0.76657,0.5045365 l -3.740079,8.7301068 c -0.0064,0.01383 -0.01224,0.02644 -0.01791,0.04069 l -1.24181,2.895389 c -0.181317,0.422981 0.01482,0.914089 0.437807,1.095332 0.422981,0.181326 0.914007,-0.01474 1.095333,-0.437808 l 0.908166,-2.12068 c 0.07575,-0.176826 0.248742,-0.291331 0.441066,-0.291331 h 5.767991 c 0.192324,0 0.365315,0.114505 0.441062,0.291329 l 0.908165,2.120681 c 0.181243,0.423065 0.672352,0.619133 1.095333,0.437807 0.423065,-0.181242 0.61905,-0.672351 0.437807,-1.095332 l -1.243438,-2.898643 c -0.0046,-0.01142 -0.0096,-0.02302 -0.01465,-0.03418 L 16.93265,9.1709272 C 16.801322,8.8645404 16.4994,8.6663907 16.16608,8.6663907 Z m 0,3.6879983 c 0.179305,0 0.359444,0.09709 0.44269,0.29133 l 1.756113,4.099764 c 0.135994,0.317237 -0.09599,0.670546 -0.441063,0.670546 h -3.515479 c -0.345153,0 -0.577057,-0.353309 -0.441063,-0.670546 l 1.75774,-4.099764 c 0.08325,-0.194242 0.261757,-0.29133 0.441062,-0.29133 z" />
</svg>
