<svg xmlns="http://www.w3.org/2000/svg"
	 width="24"
	 height="24"
	 viewBox="0 0 24 24">
	<path d="M21.8,11.1 C21.8,10.101 20.99,9.3 20,9.3 L14.312,9.3 L15.176,5.187 C15.194,5.097 15.203,4.998 15.203,4.899 C15.203,4.53 15.05,4.188 14.807,3.945 L13.853,3 L7.931,8.922 C7.598,9.255 7.4,9.705 7.4,10.2 L7.4,19.2 C7.4,20.1941125 8.20588745,21 9.2,21 L17.3,21 C18.047,21 18.686,20.55 18.956,19.902 L21.674,13.557 C21.755,13.35 21.8,13.134 21.8,12.9 L21.8,11.1 Z M2,21 L5.6,21 L5.6,10.2 L2,10.2 L2,21 Z"/>
</svg>
