<svg xmlns="http://www.w3.org/2000/svg"
	 width="24"
	 height="24"
	 viewBox="0 0 24 24">
	<path d="M18.2,13.8 L21.8,13.8 L21.8,3 L18.2,3 L18.2,13.8 Z M14.6,3 L6.5,3 C5.753,3 5.114,3.45 4.844,4.098 L2.126,10.443 C2.045,10.65 2,10.866 2,11.1 L2,12.9 C2,13.8941125 2.80588745,14.7 3.8,14.7 L9.479,14.7 L8.624,18.813 C8.606,18.903 8.597,18.993 8.597,19.092 C8.597,19.47 8.75,19.803 8.993,20.046 L9.947,21 L15.869,15.069 C16.202,14.745 16.4,14.295 16.4,13.8 L16.4,4.8 C16.4,3.801 15.59,3 14.6,3 Z"/>
</svg>
