<svg xmlns="http://www.w3.org/2000/svg"
	 width="24"
	 height="24"
	 viewBox="0 0 24 24">
	<path
		fill-rule="evenodd"
		d="M16,11 C18.33,11 23,12.17 23,14.5 L23,17 L17,17 L17,16.643 C17,14.364 13.527,12.951 10.546,12.403 C12.118,11.47 14.526,11 16,11 Z M8,14 C10.33,14 15,15.17 15,17.5 L15,20 L1,20 L1,17.5 C1,15.17 5.67,14 8,14 Z M8,12 C6.34,12 5,10.66 5,9 C5,7.34 6.34,6 8,6 C9.66,6 10.99,7.34 10.99,9 C10.99,10.66 9.66,12 8,12 Z M16,9 C14.34,9 13,7.66 13,6 C13,4.34 14.34,3 16,3 C17.66,3 18.99,4.34 18.99,6 C18.99,7.66 17.66,9 16,9 Z"/>
</svg>
