<?xml version="1.0" encoding="UTF-8"?>
<svg width="24px" height="24px" viewBox="0 0 24 24" version="1.1" xmlns="http://www.w3.org/2000/svg" xmlns:xlink="http://www.w3.org/1999/xlink">
    <path d="M12.6742209,3.4696189 L14.6398377,8.79151725 L20.3094022,9.0170062 C20.9759871,9.0430587 21.2490892,9.88572255 20.725344,10.2989692 L16.272162,13.8133626 L17.8092599,19.2745071 C17.9898307,19.9168362 17.273836,20.4378863 16.7186481,20.0668627 L12.0004492,16.9172044 L7.28135194,20.0668627 C6.72616403,20.4378863 6.01016926,19.9168362 6.19074009,19.2745071 L7.72783801,13.8133626 L3.27465602,10.2989692 C2.75091079,9.88572255 3.02401293,9.0430587 3.69059777,9.0170062 L9.36016234,8.79151725 L11.3257791,3.4696189 C11.5566582,2.84346037 12.4424434,2.84346037 12.6742209,3.4696189 Z M13.5796779,10.2505386 L12,5.973 L10.4203221,10.2505386 L5.864,10.431 L9.44297434,13.2560789 L8.207,17.645 L12.0005285,15.113742 L15.792,17.644 L14.5570257,13.2560789 L18.135,10.431 L13.5796779,10.2505386 Z" id="star_unfilled" fill="#FA9913"></path>
</svg>
