<svg xmlns="http://www.w3.org/2000/svg"
	 width="24"
	 height="24"
	 viewBox="0 0 24 24">
	<path d="M7.6328127,3 C9.2054262,3 10.4745922,4.2692 10.4746092,5.8418 L10.4645692,11.5254 C10.4645692,13.0933 9.2007042,14.3672 7.6328167,14.3672 C6.0648801,14.3672 4.7893484,13.0933 4.7893484,11.5254 L4.7893484,5.8418 C4.7893484,4.2692 6.0648801,3 7.6328167,3 L7.6328127,3 Z M1.00000022,11.5254 L2.611331,11.5254 C2.611331,14.3675 5.0180502,16.3578 7.6328127,16.3578 C10.2522632,16.3578 12.652623,14.3675 12.652623,11.5254 L14.263952,11.5254 C14.263952,14.7608 11.685187,17.4333 8.5778472,17.8929 L8.5778472,21 L6.6852667,21 L6.6852667,17.8929 C3.5778788,17.4333 1.00000022,14.7608 1.00000022,11.5254 Z M17.59,12 L15,9.41 L16.41,8 L19,10.59 L21.59,8 L23,9.41 L20.41,12 L23,14.59 L21.59,16 L19,13.41 L16.41,16 L15,14.59 L17.59,12 Z"/>
</svg>
