<svg xmlns="http://www.w3.org/2000/svg"
	 width="24"
	 height="24"
	 viewBox="0 0 24 24">
	<path d="M8.66667026,1.99999945 L7.0000035,3.66666621 L10.3333367,6.99999972 L7.0000035,10.3333332 L3.66666915,6.99999972 L2.00000236,8.66666648 L5.33333674,12 L2.00000236,15.3333335 L3.66666915,17.0000003 L7.0000035,13.6666668 L10.3333367,17.0000003 L7.0000035,20.3333338 L8.66667026,22.0000006 L11.9999968,18.666667 L15.3333311,22.0000006 L16.9999979,20.3333338 L13.6666644,17.0000003 L16.9999979,13.6666668 L20.3333322,17.0000003 L21.999999,15.3333335 L18.6666655,12 L21.999999,8.66666648 L20.3333322,6.99999972 L16.9999979,10.3333332 L13.6666644,6.99999972 L16.9999979,3.66666621 L15.3333311,1.99999945 L11.9999968,5.33333296 L8.66667026,1.99999945 Z M11.9999968,8.66666648 L15.3333311,12 L11.9999968,15.3333335 L8.66667026,12 L11.9999968,8.66666648 Z"/>
</svg>
