<svg xmlns="http://www.w3.org/2000/svg"
    width="24px" 
    height="24px" 
    viewBox="0 0 24 24">
    <path d="M4.25,2.75 L21.25,19.75 L20,21 L18,19 L18,19.5 C18,20.2811765 17.4065052,20.9206228 16.6447059,20.9931488 L16.5,21 L7.5,21 C6.67,21 6,20.33 6,19.5 L6,19.5 L6,7 L3,4 L4.25,2.75 Z M8,9 L8,19 L16,19 L16,17 L8,9 Z M5,7 L5,17 L3,17 L3,7 L5,7 Z M21,7 L21,17 L19,15 L19,7 L21,7 Z M2,9 L2,15 L0,15 L0,9 L2,9 Z M24,9 L24,15 L22,15 L22,9 L24,9 Z M16.5,3 C17.33,3 18,3.67 18,4.5 L18,4.5 L18,14 L16,12 L16,5 L8.999,5 L7.06306384,3.0643285 C7.15688017,3.03592222 7.2546174,3.01643599 7.35529412,3.00685121 L7.5,3 Z" />
</svg>