<svg xmlns="http://www.w3.org/2000/svg"
	 width="24"
	 height="24"
	 viewBox="0 0 24 24">
	<path
		fill-rule="evenodd"
		d="M9.3191518,20.2981 C8.8884609,20.2981 8.5829384,20.0414 8.430819,19.8504 C8.2787294,19.6595 8.1989723,19.4814 8.1243482,19.2906 C7.9750704,18.9091 7.8699186,18.468 7.7690462,17.9493 C7.5672684,16.912 7.4050645,15.5867 7.2559088,14.2657 C7.2097048,13.8563 7.1709258,13.5492 7.1271049,13.1514 C7.0663799,13.5192 7.0016937,13.9267 6.9451596,14.2303 C6.8896046,14.5283 6.8378671,14.7804 6.7765696,14.9995 C6.7460086,15.1095 6.7184186,15.2058 6.6547635,15.3381 C6.6228605,15.4041 6.5868325,15.4807 6.4873032,15.5925 C6.3878652,15.7041 6.1672957,15.9041 5.8013591,15.9044 C5.4485312,15.9044 5.2499019,15.7393 5.1438337,15.6425 C5.0376743,15.5455 4.9865802,15.4712 4.9393673,15.403 C4.8448143,15.2667 4.779852,15.1469 4.7037318,15.0133 C4.5514287,14.7462 4.3725395,14.4377 4.137453,14.1438 C3.6673734,13.556 3.0703534,13.0461 1.9046114,13.05 C1.58525286,13.0591005 1.28607667,12.894297 1.12310461,12.6195011 C0.960132541,12.3447052 0.959000084,12.0031421 1.12014641,11.7272716 C1.28129273,11.4514011 1.57936954,11.2846174 1.8987814,11.2916 C3.5502497,11.2806 4.6937764,12.1095 5.3838459,12.912 C5.4452089,12.5418 5.5002121,12.2237 5.5679605,11.8203 C5.6975587,11.0488 5.8355605,10.2733 5.9914389,9.6497 C6.0693919,9.3379 6.1467365,9.0686 6.2598034,8.8135 C6.3163704,8.6859 6.3765051,8.56 6.5013366,8.411 C6.6261988,8.2617 6.8797725,8.0279 7.2871465,8.0271 C7.2883565,8.0270975 7.2895665,8.0270975 7.2907765,8.0271 C7.6276221,8.0271 7.8741365,8.2119 7.9912672,8.3379 C8.1083056,8.4639 8.1564052,8.5626 8.1978723,8.6508 C8.2807423,8.8274 8.3210227,8.9773 8.3631939,9.1511 C8.4475059,9.4986 8.5154662,9.9247 8.584834,10.4312 C8.7236608,11.4442 8.8578728,12.7595 9.0056839,14.0681 C9.0981639,14.8872 9.2085919,15.5616 9.3137739,16.287 C9.5273479,15.0028 9.7414689,13.4965 9.9514059,11.883 C10.192421,10.0308 10.42885,8.1736 10.66687,6.7534 C10.785895,6.0433 10.902536,5.4475 11.035099,4.9794 C11.101349,4.7456 11.165431,4.5468 11.274463,4.3392 C11.328983,4.2358 11.391563,4.1255 11.520306,3.9984 C11.649018,3.8711 11.893974,3.7025 12.221255,3.7016 C12.549269,3.7016 12.805837,3.8752 12.93623,4.0086 C13.066592,4.1419 13.127037,4.256 13.178833,4.3623 C13.282396,4.5748 13.338561,4.7742 13.396196,5.009 C13.511462,5.4789 13.605582,6.0752 13.698387,6.7862 C13.883999,8.208 14.053353,10.0666 14.231387,11.9195 C14.380512,13.4722 14.543144,14.896 14.713354,16.1513 C14.800504,15.4576 14.89591,14.8327 14.970443,14.0595 C15.096893,12.748 15.211915,11.4293 15.352086,10.4049 C15.422156,9.8927 15.494397,9.4596 15.597899,9.0925 C15.649669,8.9091 15.701858,8.7436 15.815811,8.5505 C15.929793,8.3572 16.19663,8 16.717559,7.9998 C17.004868,7.9996 17.213491,8.1299 17.327321,8.2268 C17.44109,8.3238 17.495545,8.4041 17.539855,8.4731 C17.628445,8.6113 17.670218,8.7177 17.713763,8.8333 C17.800823,9.0646 17.87181,9.324 17.947229,9.6288 C18.098127,10.2381 18.253638,11.0125 18.406125,11.7832 C18.492115,12.2176 18.566526,12.5669 18.646619,12.9609 C19.318293,12.1367 20.467137,11.2613 22.120408,11.2916 C22.4383851,11.2915878 22.7316063,11.4632144 22.8872946,11.7404699 C23.0429828,12.0177254 23.0368897,12.357427 22.8713586,12.6289209 C22.7058276,12.9004148 22.4066402,13.0614155 22.088868,13.05 C20.997078,13.03 20.427989,13.5253 19.962859,14.1192 C19.730248,14.4161 19.550259,14.73 19.397131,15.0015 C19.320591,15.1372 19.255126,15.2594 19.161495,15.396 C19.114675,15.464 19.064015,15.538 18.960757,15.6343 C18.857469,15.7313 18.669077,15.8981 18.312338,15.9044 C17.942581,15.9154 17.726594,15.7175 17.626393,15.6112 C17.526196,15.5056 17.488482,15.4312 17.454625,15.367 C17.386965,15.2387 17.354665,15.1424 17.319373,15.0332 C17.248843,14.815 17.186138,14.5613 17.118085,14.2614 C17.035495,13.897 16.942893,13.4147 16.85299,12.9635 C16.80976,13.4121 16.76587,13.762 16.720947,14.2281 C16.593518,15.5497 16.456189,16.8781 16.264679,17.9246 C16.168939,18.4479 16.065866,18.8959 15.908857,19.2885 C15.830287,19.4848 15.743506,19.6707 15.580324,19.8644 C15.417203,20.0581 15.106913,20.2937 14.708156,20.2981 C14.175829,20.3091 13.88207,19.9464 13.741471,19.7238 C13.600872,19.5012 13.524445,19.2887 13.448966,19.0458 C13.297977,18.56 13.181091,17.9568 13.069461,17.2408 C12.846324,15.8087 12.659734,13.946 12.481212,12.0876 C12.368054,10.9094 12.258288,9.9211 12.14788,8.8709 C11.99848,9.9262 11.850853,10.9234 11.696502,12.1096 C11.455122,13.9648 11.209187,15.8247 10.950968,17.2521 C10.82189,17.9658 10.69278,18.5665 10.541425,19.0437 C10.465765,19.2824 10.391413,19.4879 10.263924,19.7013 C10.136495,19.9146 9.9009819,20.2915 9.3219909,20.2981 L9.3191518,20.2981 Z"/>
</svg>
