<?xml version="1.0" encoding="UTF-8"?>
<svg width="24px" height="24px" viewBox="0 0 24 24" version="1.1" xmlns="http://www.w3.org/2000/svg" xmlns:xlink="http://www.w3.org/1999/xlink">
    <title>zw_android</title>
    <g id="zw_android" stroke="none" stroke-width="1" fill="none" fill-rule="evenodd">
        <path d="M3.71428571,22 C2.76751186,22 2,21.2324881 2,20.2857143 L2,13.3018141 C2,12.4682765 2.3311215,11.6688785 2.92052154,11.0794785 L7,7 L7,17 L12,17 L12,21.999 L17,17 L22,17 L22,20.2857143 C22,21.2324881 21.2324881,22 20.2857143,22 L3.71428571,22 Z M20.2857143,2 C21.2324881,2 22,2.76751186 22,3.71428571 L22,10.6981859 C22,11.5317235 21.6688785,12.3311215 21.0794785,12.9205215 L17,17 L17,2 L20.2857143,2 Z M10.6981859,2 C11.5317235,2 12.3311215,2.3311215 12.9205215,2.92052154 L17,7 L2,7 L2,3.71428571 C2,2.76751186 2.76751186,2 3.71428571,2 L10.6981859,2 Z" id="Logo" fill="#000000"></path>
    </g>
</svg>