<svg xmlns="http://www.w3.org/2000/svg"
	 width="24"
	 height="24"
	 viewBox="0 0 24 24">
	<path d="M5.00000063,0.0018 L4.04499243,5.7268 C2.19001613,7.1918 1,9.4568 1,12.0018 C1,14.5468 2.19001613,16.8118 4.04499243,18.2768 L5.00000063,24.0018 L13.0000015,24.0018 L13.9550095,18.2768 C15.8100175,16.8118 17.0000015,14.5468 17.0000015,12.0018 C17.0000015,9.4568 15.8099855,7.1918 13.9550095,5.7268 L13.0000015,0.0018 L5.00000063,0.0018 Z M9.00000063,6.0018 C12.3150095,6.0018 15.0000015,8.6868 15.0000015,12.0018 C15.0000015,15.3168 12.3150095,18.0018 9.00000063,18.0018 C5.68499263,18.0018 3.00000023,15.3168 3.00000023,12.0018 C3.00000023,8.6868 5.68499263,6.0018 9.00000063,6.0018 Z M16.1456325,18.5749245 L17.9234103,18.5749245 L20,16.3324952 L20,23.508269 L17.9234103,21.2658397 L16.1456325,21.2658397 L16.1456325,18.5749245 Z M22,19.8540982 C22,20.6676385 21.592,21.4644713 21,21.7999992 L21,18.0018 C21.592,18.3419242 22,19.0405578 22,19.8540982 Z M21,16.0018 C22.7185714,16.4099221 24,18.0155015 24,19.935021 C24,21.8545405 22.7185714,23.4601199 21,23.8682421 L21,22.9443612 C22.2385714,22.5586634 23.1428571,21.3567212 23.1428571,19.935021 C23.1428571,18.5133208 22.2385714,17.3113787 21,16.9256809 L21,16.0018 Z"/>
</svg>
