<svg xmlns="http://www.w3.org/2000/svg"
	 width="24"
	 height="24"
	 viewBox="0 0 24 24">
	<path d="M5.00000063,0.0018 L4.04499243,5.7268 C2.19001613,7.1918 1,9.4568 1,12.0018 C1,14.5468 2.19001613,16.8118 4.04499243,18.2768 L5.00000063,24.0018 L13.0000015,24.0018 L13.9550095,18.2768 C15.8100175,16.8118 17.0000015,14.5468 17.0000015,12.0018 C17.0000015,9.4568 15.8099855,7.1918 13.9550095,5.7268 L13.0000015,0.0018 L5.00000063,0.0018 Z M9.00000063,6.0018 C12.3150095,6.0018 15.0000015,8.6868 15.0000015,12.0018 C15.0000015,15.3168 12.3150095,18.0018 9.00000063,18.0018 C5.68499263,18.0018 3.00000023,15.3168 3.00000023,12.0018 C3.00000023,8.6868 5.68499263,6.0018 9.00000063,6.0018 Z M20.512764,0 L20.5129279,0 C21.3311351,0 21.9920458,0.6769 21.9920458,1.5156 L21.9871683,4.5475 C21.9871683,5.3837 21.3292856,6.0631 20.5135444,6.0631 L20.512764,6.0631 C19.6970521,6.0631 19.0342694,5.3837 19.0342694,4.5475 L19.0342694,1.5156 C19.0342694,0.6769 19.6970521,0 20.512764,0 Z M17.0631214,4.5475 L17.9008398,4.5475 C17.9008398,6.0633 19.1530158,7.1244 20.5133571,7.1244 C21.8761947,7.1244 23.1252803,6.0633 23.1252803,4.5475 L23.963623,4.5475 C23.963623,6.273 22.6226368,7.6974 21.0060104,7.9425 L21.0060104,9.6 L20.0201409,9.6 L20.0201409,7.9425 C18.4034521,7.6974 17.0631214,6.273 17.0631214,4.5475 Z"/>
</svg>
