<?xml version="1.0" encoding="UTF-8"?>
<svg width="258px" height="45px" viewBox="0 0 258 45" version="1.1" xmlns="http://www.w3.org/2000/svg" xmlns:xlink="http://www.w3.org/1999/xlink">
    <title>AppIcon/logo.svg</title>
    <g fill="none" fill-rule="evenodd">
        <g id="Logo" fill="#E95D2F">
            <path d="M45,0 C48.3137085,2.334446e-15 51,2.6862915 51,6 L51,6 L51,11.9745646 C51,13.0958867 50.3746557,14.1236047 49.3787756,14.6389553 L49.3787756,14.6389553 L9.19460525,35.4335609 C9.09501724,35.485096 9.03248281,35.5878678 9.03248281,35.7 C9.03248281,35.8656854 9.16679738,36 9.33248281,36 L9.33248281,36 L51,36 L51,45 L6,45 C2.6862915,45 -3.1207559e-15,42.3137085 0,39 L0,39 L0,33.0254354 C-3.24594683e-15,31.9041133 0.625344301,30.8763953 1.62122439,30.3610447 L1.62122439,30.3610447 L41.8053948,9.56643908 C41.9049828,9.51490402 41.9675172,9.41213222 41.9675172,9.3 C41.9675172,9.13431458 41.8332026,9 41.6675172,9 L41.6675172,9 L0,9 L0,0 Z M105,0 L105,9 L69,9 L63,15 L63,18 L105,18 L105,27 L63,27 L63,30 L69,36 L105,36 L105,45 L68.4852814,45 C66.8939824,45 65.367859,44.367859 64.2426407,43.2426407 L64.2426407,43.2426407 L55.7573593,34.7573593 C54.632141,33.632141 54,32.1060176 54,30.5147186 L54,30.5147186 L54,14.4852814 C54,12.8939824 54.632141,11.367859 55.7573593,10.2426407 L55.7573593,10.2426407 L64.2426407,1.75735931 C65.367859,0.632141042 66.8939824,2.06867371e-15 68.4852814,0 L68.4852814,0 L105,0 Z M243.514719,0 C245.012412,-2.75121763e-16 246.452372,0.559958847 247.554698,1.56393814 L247.757359,1.75735931 L256.242641,10.2426407 C257.30167,11.3016696 257.923924,12.7158257 257.993466,14.2052088 L258,14.4852814 L258,30.5147186 C258,32.0124117 257.440041,33.4523716 256.436062,34.5546981 L256.242641,34.7573593 L247.757359,43.2426407 C246.69833,44.3016696 245.284174,44.9239243 243.794791,44.9934663 L243.514719,45 L221.485281,45 C219.987588,45 218.547628,44.4400412 217.445302,43.4360619 L217.242641,43.2426407 L208.757359,34.7573593 C207.69833,33.6983304 207.076076,32.2841743 207.006534,30.7947912 L207,30.5147186 L207,14.4852814 C207,12.9875883 207.559959,11.5476284 208.563938,10.4453019 L208.757359,10.2426407 L217.242641,1.75735931 C218.30167,0.698330352 219.715826,0.076075684 221.205209,0.00653371246 L221.485281,0 L243.514719,0 Z M123,0 L123,36 L156,36 L156,45 L120,45 C116.686292,45 114,42.3137085 114,39 L114,39 L114,0 L123,0 Z M171,0 L171,36 L204,36 L204,45 L168,45 C164.686292,45 162,42.3137085 162,39 L162,39 L162,0 L171,0 Z M243,9 L222,9 L216,15 L216,30 L222,36 L243,36 L249,30 L249,15 L243,9 Z" id="Combined-Shape"/>
        </g>
    </g>
</svg>