<svg width="24" height="24" xmlns="http://www.w3.org/2000/svg"><path d="M13.64 5.497a1 1 0 00-1.64.768v1.902c0 .89 1.077 1.337 1.707.707l1.037-1.037a1 1 0 00-.067-1.475l-1.037-.865zM8.293 6.874c.63.63 1.707.184 1.707-.707V3.063c0-1.272 1.483-1.967 2.46-1.152L16.8 5.526a2 2 0 01.134 2.95l-2.812 2.812a1 1 0 000 1.415l2.812 2.811a2 2 0 01-.134 2.95L12.46 22.08c-.977.814-2.46.12-2.46-1.152v-3.104c0-.891-1.077-1.337-1.707-.707l-.586.585a1 1 0 11-1.414-1.414l3.414-3.414a1 1 0 00.293-.707v-.343a1 1 0 00-.293-.707L6.293 7.702a1 1 0 111.414-1.414l.586.586zm5.414 8.243c-.63-.63-1.707-.184-1.707.707v1.901a1 1 0 001.64.769l1.037-.865a1 1 0 00.067-1.475l-1.037-1.037z"/></svg>