<svg width="24" height="24" xmlns="http://www.w3.org/2000/svg"><path d="M5.955 6a6 6 0 0112 0v6a6 6 0 01-12 0V6zm6-4A4.002 4.002 0 008.08 5.01c-.137.535.324.99.876.99a1 1 0 110 2 1 1 0 100 2 1 1 0 110 2c-.552 0-1.013.455-.876.99a4.002 4.002 0 007.753 0c.136-.535-.324-.99-.877-.99a1 1 0 110-2 1 1 0 100-2 1 1 0 110-2c.553 0 1.013-.455.877-.99A4.002 4.002 0 0011.955 2zm-1 20.856c0-.514-.391-.939-.896-1.036A10.006 10.006 0 012.004 13c-.054-.55.399-.999.951-.999.553 0 .994.45 1.062.998a8.001 8.001 0 0015.877 0c.068-.548.509-.998 1.061-.998.553 0 1.006.449.951.999a10.007 10.007 0 01-8.055 8.821c-.504.097-.896.522-.896 1.036V23a1 1 0 11-2 0v-.144z" /></svg>