<svg width="24" height="24" xmlns="http://www.w3.org/2000/svg"><path d="M13 8a3 3 0 116 0 3 3 0 01-6 0zm3-5a5 5 0 00-4.776 6.486c.178.57-.035 1.23-.53 1.565A6.12 6.12 0 008 16.127v.835c0 .881.42 1.71 1.129 2.23a11.605 11.605 0 0013.742 0A2.767 2.767 0 0024 16.963v-.835a6.12 6.12 0 00-2.694-5.076c-.495-.335-.708-.995-.53-1.565A5 5 0 0016 3zm3.27 9.243c-.267-.097-.56-.031-.807.11A4.977 4.977 0 0116 13a4.977 4.977 0 01-2.463-.648c-.248-.14-.54-.206-.808-.11A4.129 4.129 0 0010 16.128v.835c0 .245.116.474.313.619.109.08.218.157.33.231C11.246 18.22 12 17.73 12 17a1 1 0 112 0v2c0 .127.076.252.2.276a9.628 9.628 0 003.6 0c.124-.024.2-.149.2-.276v-2a1 1 0 112 0c0 .729.753 1.219 1.358.812.11-.074.22-.151.329-.231a.768.768 0 00.313-.619v-.835a4.129 4.129 0 00-2.73-3.884z"/><path d="M12.555 9.014c.09-.006.124-.12.048-.17-.452-.293-.69-.85-.63-1.385.018-.15.027-.304.027-.459 0-.652-.744-.713-.884-.075a5.02 5.02 0 00-.11 1.318c.027.558.591.875 1.146.808.133-.016.267-.029.403-.037zm-3.592 8.622c-.065.17-.258.232-.44.241a10.56 10.56 0 01-.137.006c-.099.004-.2-.022-.263-.097a.53.53 0 01-.123-.34V16c0-.06.05-.11.11-.11.24-.004.478-.017.716-.041.09-.01.174.055.174.146v1.434a.58.58 0 01-.037.207zM14.328 11c.1 0 .193.058.234.15.085.196.16.398.221.606.032.107-.166.244-.278.244H13.22a.618.618 0 01-.394-.136 4.774 4.774 0 01-.114-.097A.43.43 0 0113 11h1.328zM8 11a.256.256 0 00.176-.072 7.07 7.07 0 01.5-.434c.357-.28.53-.742.446-1.187-.052-.275-.369-.433-.64-.366a2 2 0 11-.155-3.915c.576.096 1.338-.065 1.634-.568.223-.379.156-.88-.24-1.07a4 4 0 00-5.695 4.071c.061.535-.177 1.092-.63 1.385A5.25 5.25 0 001 13.254v.67c0 .819.396 1.587 1.062 2.064a10.198 10.198 0 003.706 1.656c.121.027.232-.074.232-.198V16a.467.467 0 00-.333-.447 8.204 8.204 0 01-2.443-1.193.536.536 0 01-.224-.436v-.67c0-1.349.821-2.507 1.991-3 .291-.122.616-.033.883.135A3.982 3.982 0 008 11z"/></svg>