<svg width="24" height="24" xmlns="http://www.w3.org/2000/svg"><path d="M3 10a7 7 0 017-7 1 1 0 100-2 9 9 0 00-9 9 1 1 0 102 0zm11-3a4 4 0 014-4h2a3 3 0 013 3v2.343a5 5 0 01-1.465 3.536l-4.828 4.828-4.828 4.828A5 5 0 018.343 23H6a3 3 0 01-3-3v-2a4 4 0 014-4h3.172a1 1 0 00.707-.293l2.828-2.828a1 1 0 00.293-.707V7zm4-2a2 2 0 00-2 2v3.172a3 3 0 01-.879 2.12l-2.828 2.83a3 3 0 01-2.121.878H7a2 2 0 00-2 2v2a1 1 0 001 1h2.343a3 3 0 002.121-.879l4.829-4.828 4.828-4.829A3 3 0 0021 8.345V6a1 1 0 00-1-1h-2zm-7 2a4 4 0 00-4 4 1 1 0 11-2 0 6 6 0 016-6 1 1 0 110 2z"/></svg>