<svg xmlns="http://www.w3.org/2000/svg"
	 width="180"
	 height="180"
	 viewBox="0 0 180 180">
	<g
		fill="none"
		fill-rule="evenodd">
		<path
			fill="#CCC"
			d="M90,64.2857143 C97.0340186,64.2857143 102.735099,70.0414286 102.735099,77.1428571 C102.735099,84.2442857 97.0340186,90 90,90 C82.9659814,90 77.2649014,84.2442857 77.2649014,77.1428571 C77.2649014,70.0414286 82.9659814,64.2857143 90,64.2857143 Z M90,98.5714286 C98.4900643,98.5714286 115.470197,102.857143 115.470197,111.428571 L115.470197,120 L64.5298029,120 L64.5298029,111.428571 C64.5298029,102.857143 81.5099357,98.5714286 90,98.5714286 Z M121.837744,94.9448571 C128.366606,94.9448571 141.428571,98.2405714 141.428571,104.836286 L141.428571,111.427714 L123.960261,111.427714 L123.960261,108.569143 C123.960261,103.263429 119.05725,99.2048571 112.689699,96.3634286 C115.966864,95.4162857 119.367137,94.9448571 121.837744,94.9448571 Z M121.837744,68.5714286 C127.245917,68.5714286 131.635281,72.9985714 131.635281,78.4628571 C131.635281,83.9228571 127.245917,88.35 121.837744,88.35 C116.429571,88.35 112.040211,83.9228571 112.040211,78.4628571 C112.040211,72.9985714 116.429571,68.5714286 121.837744,68.5714286 Z M56.0397386,108.57 L56.0397386,111.428571 L38.5714286,111.428571 L38.5714286,104.832857 C38.5714286,98.2414286 51.6333943,94.9457143 58.1622557,94.9457143 C60.6328629,94.9457143 64.0331357,95.4171429 67.3103014,96.36 C60.94275,99.2014286 56.0397386,103.264286 56.0397386,108.57 Z M58.1622557,68.5714286 C63.5704243,68.5714286 67.9597886,72.9985714 67.9597886,78.4628571 C67.9597886,83.9228571 63.5704243,88.35 58.1622557,88.35 C52.7540829,88.35 48.3647186,83.9228571 48.3647186,78.4628571 C48.3647186,72.9985714 52.7540829,68.5714286 58.1622557,68.5714286 Z"/>
	</g>
</svg>
