<svg xmlns="http://www.w3.org/2000/svg"
	 width="180"
	 height="180"
	 viewBox="0 0 180 180">
	<g
		fill="none"
		fill-rule="evenodd">
		<path
			fill="#CCC"
			d="M107.142857,90 C117.128571,90 137.142857,95.0142857 137.142857,105 L137.142857,115.714286 L111.428571,115.714286 L111.428571,114.184286 C111.428571,104.417143 96.5442857,98.3614286 83.7685714,96.0128571 C90.5057143,92.0142857 100.825714,90 107.142857,90 Z M72.8571429,102.857143 C82.8428571,102.857143 102.857143,107.871429 102.857143,117.857143 L102.857143,128.571429 L42.8571429,128.571429 L42.8571429,117.857143 C42.8571429,107.871429 62.8714286,102.857143 72.8571429,102.857143 Z M72.8571429,94.2857143 C65.7428571,94.2857143 60,88.5428571 60,81.4285714 C60,74.3142857 65.7428571,68.5714286 72.8571429,68.5714286 C79.9714286,68.5714286 85.6714286,74.3142857 85.6714286,81.4285714 C85.6714286,88.5428571 79.9714286,94.2857143 72.8571429,94.2857143 Z M107.142857,81.4285714 C100.028571,81.4285714 94.2857143,75.6857143 94.2857143,68.5714286 C94.2857143,61.4571429 100.028571,55.7142857 107.142857,55.7142857 C114.257143,55.7142857 119.957143,61.4571429 119.957143,68.5714286 C119.957143,75.6857143 114.257143,81.4285714 107.142857,81.4285714 Z"/>
	</g>
</svg>
