<svg xmlns="http://www.w3.org/2000/svg"
	width="48"
	height="48"
	viewBox="0 0 48 48">
	<g
		fill="none"
		fill-rule="evenodd">
		<path
			d="M24 12a1 1 0 0 1 1 1v22a1 1 0 0 1-2 0V13a1 1 0 0 1 1-1zm4 4a1 1 0 0 1 1 1v14a1 1 0 0 1-2 0V17a1 1 0 0 1 1-1zm-8 0a1 1 0 0 1 1 1v14a1 1 0 0 1-2 0V17a1 1 0 0 1 1-1zm16 2a1 1 0 0 1 1 1v10a1 1 0 0 1-2 0V19a1 1 0 0 1 1-1zm-24 0a1 1 0 0 1 1 1v10a1 1 0 0 1-2 0V19a1 1 0 0 1 1-1zm20 2a1 1 0 0 1 1 1v6a1 1 0 0 1-2 0v-6a1 1 0 0 1 1-1zm-16 0a1 1 0 0 1 1 1v6a1 1 0 0 1-2 0v-6a1 1 0 0 1 1-1zm24 2a1 1 0 0 1 1 1v2a1 1 0 0 1-2 0v-2a1 1 0 0 1 1-1zM8 22a1 1 0 0 1 1 1v2a1 1 0 0 1-2 0v-2a1 1 0 0 1 1-1z" fill="#FFF"/>
	</g>
</svg>