<svg xmlns="http://www.w3.org/2000/svg"
    width="108"
    height="108"
    viewBox="0 0 108 108">
    <g
        fill="none"
        fill-rule="evenodd">
        <path
            d="M42,42 L42,66 L55,66 L55,77 L35.104,77 C32.8374234,77 31,75.1625766 31,72.896 L31,72.896 L31,56.1165428 C31,54.121054 31.7927049,52.2072951 33.2037286,50.7962714 L33.2037286,50.7962714 L42,42 Z M77,66 L77,72.896 C77,75.1625766 75.1625766,77 72.896,77 L55,77 L66,66 L77,66 Z M72.896,31 C75.1625766,31 77,32.8374234 77,35.104 L77,51.8834572 C77,53.878946 76.2072951,55.7927049 74.7962714,57.2037286 L66,66 L66,31 L72.896,31 Z M51.8834572,31 C53.878946,31 55.7927049,31.7927049 57.2037286,33.2037286 L66,42 L31,42 L31,35.104 C31,32.8374234 32.8374234,31 35.104,31 L51.8834572,31 Z" fill="#FFF"/>
    </g>
</svg>